<?xml version="1.0" standalone="no"?>
<!DOCTYPE svg PUBLIC "-//W3C//DTD SVG 20010904//EN"
 "http://www.w3.org/TR/2001/REC-SVG-20010904/DTD/svg10.dtd">
<svg version="1.0" xmlns="http://www.w3.org/2000/svg"
 width="1024.000000pt" height="1024.000000pt" viewBox="0 0 1024.000000 1024.000000"
 preserveAspectRatio="xMidYMid meet">
<metadata>
Created by potrace 1.16, written by Peter Selinger 2001-2019
</metadata>
<g transform="translate(0.000000,1024.000000) scale(0.100000,-0.100000)"
fill="#000000" stroke="none">
<path d="M8080 9660 l-164 -5 -8 -35 c-4 -19 -8 -74 -10 -122 l-3 -87 -70 -22
c-38 -11 -100 -36 -138 -55 l-68 -34 -85 75 c-50 45 -92 75 -106 75 -30 0
-308 -276 -308 -306 0 -24 33 -76 97 -151 l44 -52 -34 -68 c-19 -37 -42 -91
-51 -120 -19 -58 -5 -52 -165 -72 -46 -6 -90 -16 -98 -22 -11 -10 -13 -54 -11
-228 l3 -216 37 -12 c21 -7 77 -15 126 -19 l89 -7 14 -54 c7 -30 29 -88 49
-129 l36 -74 -68 -81 c-37 -44 -68 -90 -68 -101 0 -24 270 -304 303 -314 21
-7 58 17 139 88 l54 47 92 -39 c50 -22 111 -45 136 -51 l44 -11 6 -76 c4 -43
10 -97 14 -122 7 -43 9 -45 47 -52 73 -13 369 -9 388 5 14 10 19 35 25 126 l7
114 72 23 c40 13 102 37 139 54 l67 30 66 -58 c83 -74 103 -85 133 -73 38 15
298 285 298 309 0 12 -29 57 -64 100 l-65 79 39 94 c21 52 41 110 45 130 l7
36 96 7 c53 4 111 14 129 21 l33 14 -2 218 -3 218 -26 12 c-15 7 -70 16 -124
20 l-98 8 -22 65 c-13 36 -34 91 -48 123 l-26 58 64 85 c44 57 65 94 65 112 0
23 -28 55 -143 170 -90 89 -151 142 -164 142 -25 0 -60 -25 -134 -97 l-56 -55
-70 35 c-38 19 -101 45 -139 57 l-71 21 -6 117 c-7 133 -14 143 -81 140 -23
-1 -115 -5 -206 -8z m271 -479 c274 -71 484 -281 555 -556 25 -100 24 -284 -4
-386 -90 -333 -379 -568 -722 -586 -238 -13 -440 65 -605 231 -164 166 -232
343 -222 581 7 183 63 327 178 466 190 228 519 328 820 250z"/>
<path d="M7684 8986 c-78 -37 -84 -45 -84 -133 0 -52 1 -53 71 -120 77 -74
106 -91 159 -93 31 -2 44 -12 114 -92 l79 -90 -73 -73 c-71 -72 -72 -72 -116
-67 -158 17 -293 -142 -243 -287 6 -17 14 -31 18 -31 3 0 38 32 76 70 41 42
78 70 90 70 20 0 115 -86 115 -104 0 -5 -34 -45 -76 -88 -47 -49 -72 -84 -67
-89 16 -16 106 -22 153 -9 32 8 59 26 91 60 55 56 75 120 64 205 l-6 53 59 64
60 63 99 -105 c54 -58 132 -142 173 -186 41 -45 84 -85 94 -89 10 -4 37 -1 58
6 29 9 44 22 59 50 35 70 35 72 -166 264 -102 98 -184 182 -183 186 2 4 26 34
55 67 l52 59 48 -10 c144 -30 275 94 260 246 -7 81 -18 80 -105 -6 -43 -42
-84 -77 -93 -77 -19 0 -109 91 -109 110 0 8 35 49 77 92 89 89 88 99 -6 106
-77 6 -125 -11 -176 -62 -51 -51 -70 -112 -62 -194 l6 -58 -63 -63 -62 -62
-81 93 c-76 89 -80 96 -86 153 -6 59 -8 61 -80 132 -51 50 -82 73 -98 73 -13
-1 -56 -16 -95 -34z"/>
<path d="M5744 9614 c-192 -138 -460 -239 -723 -275 l-93 -12 5 -281 c4 -231
9 -297 25 -374 52 -238 147 -428 304 -610 111 -129 313 -283 463 -354 l67 -31
85 43 c416 211 687 573 758 1015 10 62 15 169 15 342 l0 251 -62 7 c-95 10
-281 53 -377 87 -113 40 -225 97 -332 168 l-86 59 -49 -35z m119 -158 c185
-112 376 -183 590 -219 l79 -13 -1 -191 c0 -219 -16 -341 -62 -477 -78 -232
-215 -426 -414 -581 -70 -54 -248 -165 -265 -165 -14 0 -176 102 -244 153
-194 146 -350 358 -426 577 -48 139 -61 233 -67 468 l-6 222 28 0 c47 0 255
50 350 85 99 36 270 119 325 159 19 14 36 25 38 26 2 0 36 -20 75 -44z"/>
<path d="M5895 8779 l-216 -212 -98 97 c-54 53 -105 96 -113 96 -21 0 -65 -36
-70 -57 -9 -32 5 -50 136 -183 98 -98 136 -130 155 -130 19 0 78 53 264 238
132 130 245 250 252 266 22 50 -8 96 -61 96 -29 0 -56 -23 -249 -211z"/>
<path d="M3532 8983 l3 -638 180 0 180 0 0 635 0 635 -183 3 -182 2 2 -637z
m248 -3 l0 -521 -65 3 -64 3 -3 518 -4 517 68 0 68 0 0 -520z"/>
<path d="M1045 9434 c-45 -23 -66 -45 -86 -89 -17 -37 -19 -80 -19 -677 l0
-638 -110 0 -110 0 0 -42 c0 -132 37 -228 110 -291 83 -71 33 -68 1130 -65
l985 3 51 27 c103 54 151 140 161 286 l6 82 -107 0 -106 0 0 610 c0 405 -4
626 -11 660 -12 56 -53 111 -100 136 -24 12 -158 14 -896 14 -768 0 -871 -2
-898 -16z m1769 -126 c14 -20 16 -98 16 -650 l0 -628 -885 0 -885 0 0 631 c0
415 4 637 10 650 10 19 31 19 870 19 l859 0 15 -22z m220 -1415 c-15 -64 -55
-113 -107 -132 -19 -8 -332 -11 -987 -11 -655 0 -968 3 -987 11 -15 6 -39 20
-52 32 -24 22 -60 91 -61 115 0 9 227 12 1100 12 l1100 0 -6 -27z"/>
<path d="M1847 9174 c-4 -4 -7 -28 -7 -53 l0 -46 -57 -22 -57 -22 -38 35 c-21
18 -42 34 -46 34 -17 0 -122 -117 -122 -135 0 -11 15 -32 34 -47 l33 -27 -21
-60 -20 -60 -56 2 -55 2 -3 -94 c-3 -107 -1 -111 68 -111 l45 0 21 -55 21 -54
-33 -32 c-19 -18 -34 -43 -34 -55 0 -22 99 -124 120 -124 6 0 27 17 46 38 l35
39 46 -24 c26 -12 52 -23 60 -23 9 0 13 -15 13 -48 0 -26 5 -53 12 -60 7 -7
42 -12 88 -12 46 0 81 5 88 12 7 7 12 34 12 60 0 39 3 48 18 48 9 0 36 9 58
19 l42 19 33 -34 c18 -19 40 -34 49 -34 23 0 120 102 120 126 0 11 -15 35 -34
53 l-33 32 21 54 21 55 51 0 c27 0 55 5 62 12 13 13 17 155 4 175 -4 6 -31 13
-61 15 l-53 3 -19 54 -19 54 30 34 c17 18 30 42 30 52 0 16 -109 131 -124 131
-3 0 -23 -16 -44 -35 l-39 -35 -41 20 c-23 11 -48 20 -56 20 -11 0 -16 14 -18
53 l-3 52 -90 3 c-50 1 -94 0 -98 -4z m179 -329 c184 -92 120 -365 -86 -365
-111 0 -190 79 -190 190 0 89 46 157 126 185 57 21 94 18 150 -10z"/>
<path d="M4040 8790 l0 -450 185 0 185 0 0 450 0 450 -185 0 -185 0 0 -450z
m250 0 l0 -330 -70 0 -70 0 0 330 0 330 70 0 70 0 0 -330z"/>
<path d="M3110 8635 l0 -295 145 0 145 0 0 295 0 295 -145 0 -145 0 0 -295z
m170 0 l0 -175 -25 0 -25 0 0 175 0 175 25 0 25 0 0 -175z"/>
<path d="M4387 8032 c-20 -22 -22 -53 -5 -70 9 -9 -65 -12 -335 -12 -334 0
-348 -1 -367 -20 -24 -24 -25 -48 -4 -78 l15 -22 360 0 360 0 -25 -33 c-31
-40 -33 -68 -8 -90 37 -33 64 -22 145 62 49 50 77 87 77 101 0 30 -146 180
-175 180 -12 0 -29 -8 -38 -18z"/>
<path d="M3187 7469 c-328 -38 -669 -187 -909 -396 -319 -279 -525 -705 -531
-1097 l-2 -99 135 -99 c149 -109 186 -132 200 -123 5 3 64 78 131 167 l122
161 22 111 c39 193 112 331 255 480 178 185 386 287 652 318 243 29 533 -53
746 -211 l82 -61 0 168 c0 92 4 173 9 180 6 10 64 16 221 22 117 5 214 10 215
12 2 2 -33 35 -77 73 -343 300 -817 447 -1271 394z"/>
<path d="M6549 7455 c-282 -40 -556 -156 -769 -325 -52 -42 -53 -44 -30 -51
14 -5 94 -17 177 -29 84 -11 160 -23 168 -26 18 -7 19 -74 5 -268 -5 -72 -8
-132 -6 -134 3 -2 29 16 59 41 173 141 468 232 687 212 178 -16 341 -70 476
-156 216 -141 379 -373 432 -620 l17 -76 135 -146 135 -146 110 107 c204 199
197 190 190 247 -47 386 -200 688 -477 950 -219 207 -505 351 -805 406 -142
26 -376 33 -504 14z"/>
<path d="M9041 7256 c-9 -11 -12 -83 -11 -255 1 -225 -1 -241 -17 -241 -31 -1
-99 -37 -143 -76 -64 -58 -93 -123 -98 -222 -4 -77 -2 -87 27 -147 39 -79 104
-139 177 -162 l54 -17 0 -226 0 -227 -58 -21 c-78 -29 -134 -79 -171 -154 -27
-53 -31 -72 -31 -137 1 -42 7 -93 14 -114 32 -89 104 -159 196 -189 l45 -15 1
-236 c1 -131 -1 -237 -4 -237 -3 0 -36 29 -73 65 -39 38 -76 65 -88 65 -40 0
-75 -55 -53 -85 4 -6 62 -63 129 -128 95 -92 127 -117 149 -117 21 0 53 25
151 122 67 67 126 130 129 140 9 28 -22 68 -52 68 -19 0 -47 -20 -100 -72
l-74 -72 2 243 3 243 51 19 c116 43 198 162 198 288 1 154 -85 267 -236 315
-17 5 -18 25 -18 236 0 177 3 230 13 230 28 0 116 50 152 85 88 89 116 238 66
353 -30 66 -114 145 -182 169 l-49 18 0 240 c0 174 -3 244 -12 253 -17 17 -73
15 -87 -2z m147 -634 c60 -43 86 -88 90 -158 8 -124 -61 -204 -182 -212 -49
-3 -71 0 -103 17 -151 77 -150 282 2 365 45 24 151 18 193 -12z m-30 -1067
c131 -55 165 -230 64 -331 -42 -42 -82 -58 -142 -58 -64 1 -105 20 -147 68
-140 159 30 402 225 321z"/>
<path d="M1377 7180 c-68 -53 -27 -169 60 -170 39 0 89 40 96 77 7 35 -15 88
-41 102 -33 17 -87 13 -115 -9z"/>
<path d="M939 7001 c-21 -22 -29 -39 -29 -66 0 -51 44 -95 95 -95 51 0 95 44
95 95 0 51 -44 95 -95 95 -27 0 -44 -8 -66 -29z"/>
<path d="M5454 6828 c-262 -267 -308 -318 -878 -983 -311 -362 -441 -510 -529
-601 l-68 -72 138 -6 c76 -4 162 -9 191 -13 l52 -5 0 -221 0 -220 21 19 c12
10 116 127 232 259 116 132 261 296 323 365 106 118 371 418 778 879 99 111
201 221 227 244 l48 42 11 204 c6 112 9 206 6 208 -6 6 -324 43 -371 43 -39 0
-46 -6 -181 -142z"/>
<path d="M4251 6893 l-73 -4 3 -182 c4 -173 5 -184 27 -212 30 -38 414 -465
418 -465 7 0 394 441 394 449 0 5 -37 49 -82 98 -46 49 -132 142 -191 206
l-109 117 -156 -2 c-87 -1 -190 -4 -231 -5z"/>
<path d="M922 6568 c-7 -7 -12 -28 -12 -48 0 -20 5 -41 12 -48 13 -13 451 -18
482 -6 19 7 22 84 4 102 -9 9 -77 12 -243 12 -166 0 -234 -3 -243 -12z"/>
<path d="M926 6247 c-13 -10 -17 -24 -14 -57 l3 -45 250 0 250 0 3 43 c5 73 8
72 -247 72 -169 0 -232 -3 -245 -13z"/>
<path d="M6161 6217 c-100 -38 -162 -138 -169 -274 -8 -146 37 -249 132 -303
181 -104 366 14 383 244 15 197 -83 334 -245 342 -39 2 -81 -2 -101 -9z m164
-140 c42 -42 59 -102 53 -187 -8 -113 -62 -176 -141 -166 -81 9 -122 87 -115
214 7 117 48 171 132 172 30 0 45 -7 71 -33z"/>
<path d="M7175 6214 c-72 -26 -115 -86 -115 -159 0 -87 50 -139 171 -180 98
-33 115 -42 129 -73 9 -21 8 -30 -8 -51 -41 -56 -134 -45 -170 19 -17 31 -18
31 -77 24 -33 -3 -61 -7 -63 -9 -9 -8 15 -59 45 -95 53 -61 104 -84 188 -84
135 0 215 71 215 193 0 88 -54 141 -191 186 -78 26 -109 51 -109 87 0 25 39
48 81 48 30 0 43 -7 66 -34 l28 -34 53 10 c51 10 53 12 47 37 -11 42 -55 92
-99 112 -49 22 -134 24 -191 3z"/>
<path d="M2678 6214 l-28 -5 0 -301 0 -300 133 4 c117 3 138 7 182 29 57 29
109 90 127 152 7 23 12 80 13 127 0 75 -4 92 -30 145 -33 66 -91 117 -153 135
-42 12 -203 21 -244 14z m216 -128 c55 -23 79 -67 83 -155 4 -65 1 -83 -19
-121 -27 -53 -73 -80 -135 -80 l-43 0 0 185 0 185 40 0 c22 0 56 -6 74 -14z"/>
<path d="M6592 5918 l3 -303 60 0 60 0 3 103 3 102 52 0 c29 0 70 5 92 11 181
50 197 301 23 374 -27 11 -73 15 -168 15 l-130 0 2 -302z m247 177 c32 -16 41
-33 41 -78 -1 -57 -43 -87 -121 -87 l-39 0 0 90 0 90 45 0 c26 0 59 -7 74 -15z"/>
<path d="M3192 5913 l3 -298 175 0 175 0 0 50 0 50 -112 3 -113 3 0 69 0 70
93 0 c52 0 96 2 98 4 2 2 2 27 1 55 l-4 51 -94 0 -94 0 0 65 0 64 108 3 107 3
3 53 3 52 -176 0 -175 0 2 -297z"/>
<path d="M3610 6196 c0 -8 37 -131 81 -273 45 -142 84 -269 88 -283 7 -23 13
-25 72 -28 l65 -3 17 53 c69 208 167 525 167 536 0 10 -16 12 -62 10 l-63 -3
-33 -115 c-54 -192 -85 -290 -90 -286 -2 3 -30 94 -61 203 l-56 198 -63 3
c-50 2 -62 0 -62 -12z"/>
<path d="M922 5918 c-7 -7 -12 -31 -12 -55 0 -54 4 -55 175 -51 l130 3 3 43
c5 69 -2 72 -152 72 -89 0 -136 -4 -144 -12z"/>
<path d="M8186 5730 c-82 -77 -154 -139 -160 -139 -6 1 -63 57 -126 124 -63
67 -118 123 -122 124 -3 0 -11 -32 -18 -71 -38 -241 -163 -460 -347 -607 -93
-74 -246 -151 -363 -183 -74 -20 -108 -23 -255 -22 -141 0 -183 4 -248 22
-153 42 -307 128 -437 242 l-66 58 -169 -14 c-94 -7 -179 -13 -191 -14 -20 0
-21 -10 -38 -207 l-17 -208 63 -59 c171 -159 410 -293 641 -360 175 -51 249
-61 457 -61 167 0 211 3 304 23 613 131 1087 595 1216 1188 19 87 40 304 29
304 -2 0 -71 -63 -153 -140z"/>
<path d="M5298 5637 c-101 -105 -188 -198 -192 -204 -7 -13 61 -92 303 -351
95 -102 117 -120 122 -105 4 10 12 96 18 192 6 96 14 178 18 182 5 4 91 12
193 18 101 7 186 13 188 15 10 11 -402 410 -452 438 -9 5 -75 -57 -198 -185z"/>
<path d="M2220 5652 c-62 -83 -116 -152 -120 -152 -4 0 -83 52 -176 115 -93
63 -170 111 -172 106 -6 -19 30 -185 60 -281 146 -457 501 -824 963 -995 137
-51 284 -83 446 -97 329 -28 699 62 967 235 l70 45 6 189 c4 103 8 202 9 218
l2 30 -208 9 -208 9 -47 -26 c-139 -74 -294 -110 -477 -110 -165 1 -278 25
-419 92 -295 138 -481 363 -560 678 l-22 88 -114 -153z"/>
<path d="M812 5398 c-9 -9 -12 -213 -12 -854 0 -753 2 -844 16 -858 14 -14 95
-16 744 -16 711 0 730 0 740 19 14 26 13 64 -2 79 -9 9 -177 12 -695 12 l-683
0 0 803 c0 611 -3 806 -12 815 -7 7 -28 12 -48 12 -20 0 -41 -5 -48 -12z"/>
<path d="M1870 4701 c-112 -6 -115 -7 -130 -33 -13 -25 -13 -31 0 -55 14 -25
22 -28 74 -31 l58 -3 -48 -52 c-27 -29 -107 -114 -180 -190 l-131 -139 -60 56
c-41 37 -69 56 -86 56 -20 0 -60 -37 -184 -166 -164 -172 -183 -202 -148 -238
37 -36 60 -22 202 124 l136 140 62 -55 c38 -33 72 -55 87 -55 17 0 75 55 233
224 116 123 212 225 215 225 3 1 3 -24 2 -54 -4 -65 15 -105 52 -105 49 0 56
24 56 186 0 103 -4 154 -12 162 -7 7 -28 11 -47 10 -20 -1 -88 -4 -151 -7z"/>
<path d="M7927 4472 c-10 -10 -17 -28 -17 -40 0 -22 4 -27 73 -84 49 -40 65
-78 41 -91 -90 -50 -173 -191 -181 -304 -5 -66 -7 -69 -45 -97 -21 -15 -66
-53 -98 -83 l-60 -55 -48 16 c-60 20 -89 50 -106 107 -17 58 -53 81 -93 59
-38 -21 -41 -65 -10 -133 33 -72 67 -109 131 -143 l54 -28 -29 -58 c-25 -49
-52 -134 -73 -230 l-6 -28 -92 0 c-86 0 -94 -2 -120 -27 -32 -31 -35 -52 -10
-82 15 -18 30 -21 117 -23 l100 -3 8 -75 c7 -61 38 -177 71 -260 5 -12 -4 -20
-31 -29 -119 -44 -221 -249 -147 -297 44 -30 74 -10 100 64 25 74 42 94 101
123 l44 21 22 -28 c81 -105 190 -193 308 -248 111 -53 179 -68 325 -73 161 -6
252 13 394 84 83 41 109 61 203 155 99 99 110 107 130 97 56 -29 104 -92 117
-154 8 -42 53 -64 89 -44 76 43 -5 229 -126 290 -26 13 -49 24 -50 25 -2 0 8
28 22 62 29 72 44 134 53 220 l7 63 106 2 c89 2 110 5 128 21 30 27 26 60 -10
90 -29 24 -37 26 -133 26 l-103 0 -7 49 c-7 57 -44 168 -75 230 -12 23 -21 44
-19 45 2 2 19 9 38 16 133 54 223 259 124 284 -38 10 -70 -15 -79 -61 -10 -57
-31 -82 -92 -110 l-54 -25 -72 69 c-40 38 -84 78 -99 87 -21 14 -28 26 -28 50
0 49 -28 144 -58 199 -14 27 -53 74 -86 103 l-60 54 17 35 c9 19 34 46 56 60
50 31 64 55 51 89 -10 28 -46 42 -84 32 -33 -8 -111 -83 -135 -129 l-19 -39
-124 -1 -123 -2 -25 50 c-18 34 -42 61 -80 87 -59 42 -98 48 -123 20z m283
-1292 c0 -670 -1 -710 -17 -710 -42 0 -153 33 -218 65 -134 65 -248 179 -319
322 -53 105 -69 181 -70 318 -1 142 14 211 76 335 61 122 188 250 308 308 83
41 172 70 218 71 l22 1 0 -710z m229 694 c236 -58 423 -241 501 -489 34 -107
39 -276 12 -383 -53 -207 -188 -380 -367 -467 -73 -36 -170 -65 -217 -65 l-28
0 0 710 c0 659 1 710 17 710 9 0 46 -7 82 -16z"/>
<path d="M7944 3626 c-91 -41 -98 -165 -12 -212 95 -53 211 54 165 152 -29 59
-96 86 -153 60z"/>
<path d="M7788 3194 c-58 -31 -75 -116 -35 -175 44 -66 139 -70 191 -8 20 24
26 41 26 81 0 44 -4 54 -34 84 -28 28 -41 34 -77 34 -24 -1 -56 -7 -71 -16z"/>
<path d="M7985 2851 c-84 -36 -83 -162 2 -197 102 -43 190 83 116 166 -30 33
-82 46 -118 31z"/>
<path d="M8513 3625 c-79 -34 -94 -133 -29 -192 40 -37 87 -43 136 -18 82 42
78 170 -6 210 -39 18 -59 18 -101 0z"/>
<path d="M8624 3176 c-30 -30 -34 -40 -34 -86 0 -46 4 -56 34 -86 29 -29 41
-34 83 -34 55 0 86 17 108 60 46 88 -13 180 -116 180 -33 0 -47 -6 -75 -34z"/>
<path d="M8484 2850 c-32 -13 -64 -59 -64 -92 0 -45 27 -88 67 -104 43 -19 83
-11 116 22 83 83 -10 218 -119 174z"/>
<path d="M4810 4434 c-194 -27 -343 -80 -420 -150 -74 -67 -70 -13 -70 -878 0
-751 1 -778 20 -815 74 -146 403 -240 795 -228 191 6 308 24 440 68 142 48
224 103 256 174 17 38 19 84 19 800 0 714 -2 762 -19 800 -47 105 -196 182
-425 221 -132 22 -464 27 -596 8z m625 -132 c161 -36 258 -82 283 -135 40 -83
-92 -165 -343 -214 -126 -24 -453 -24 -580 0 -197 38 -324 97 -351 163 -13 32
-13 38 1 60 36 56 174 108 362 139 134 22 508 14 628 -13z m-853 -416 c294
-111 831 -96 1066 29 36 19 70 35 74 35 4 0 8 -74 8 -164 l0 -164 -29 -31
c-85 -91 -331 -151 -621 -151 -297 0 -537 60 -616 153 -23 28 -24 33 -24 198
l0 169 38 -24 c20 -14 67 -36 104 -50z m52 -510 c310 -90 781 -69 1015 46 36
18 70 34 74 36 5 2 7 -71 5 -163 l-3 -167 -43 -38 c-92 -82 -276 -129 -543
-137 -104 -3 -214 -1 -270 6 -188 22 -350 79 -403 142 -26 30 -26 33 -26 194
l0 163 53 -28 c28 -16 92 -40 141 -54z m22 -496 c146 -38 304 -53 484 -46 227
8 390 41 522 107 32 16 60 29 63 29 10 0 5 -311 -5 -331 -27 -50 -169 -107
-348 -141 -92 -17 -154 -22 -292 -22 -288 1 -507 49 -604 134 l-36 32 0 162 0
162 69 -33 c37 -18 104 -42 147 -53z"/>
<path d="M2955 4084 c-182 -28 -326 -89 -359 -153 -14 -26 -16 -104 -16 -600
0 -313 4 -580 9 -593 32 -84 194 -157 416 -188 92 -13 352 -13 435 0 186 29
341 89 399 155 l31 36 0 589 0 588 -26 31 c-52 62 -207 118 -389 140 -121 15
-389 12 -500 -5z m588 -124 c297 -63 284 -155 -33 -222 -128 -28 -414 -30
-541 -5 -306 61 -355 159 -109 217 139 32 221 39 410 35 127 -3 202 -10 273
-25z m-673 -323 c109 -27 198 -37 355 -37 212 0 399 32 508 87 l27 14 0 -95
c0 -52 -5 -107 -12 -121 -16 -35 -112 -80 -218 -102 -107 -23 -489 -26 -585
-5 -101 22 -184 53 -215 79 -30 25 -30 25 -30 133 l0 109 53 -23 c28 -13 81
-31 117 -39z m44 -369 c136 -29 390 -35 536 -14 97 15 221 48 293 80 16 7 17
0 17 -92 l0 -100 -34 -30 c-84 -73 -249 -107 -521 -107 -171 1 -212 4 -285 22
-105 27 -149 45 -189 79 l-31 26 0 103 0 103 62 -25 c34 -14 103 -34 152 -45z
m-42 -347 c120 -31 277 -44 423 -37 186 9 298 34 453 103 15 7 17 -178 2 -208
-13 -23 -85 -61 -157 -82 -260 -77 -727 -49 -863 52 -24 17 -25 24 -28 128
l-3 110 48 -23 c26 -13 83 -33 125 -43z"/>
<path d="M6349 3798 c-47 -39 -179 -189 -179 -204 0 -9 41 -59 92 -110 72 -73
98 -94 119 -94 64 0 78 64 27 117 l-32 33 277 0 c264 0 278 1 297 20 25 25 26
62 2 83 -16 15 -52 17 -296 17 l-278 0 31 29 c21 20 31 38 31 58 0 51 -55 81
-91 51z"/>
<path d="M1724 3251 c-87 -53 -51 -181 50 -181 59 0 96 36 96 92 0 52 -15 77
-55 94 -44 18 -54 18 -91 -5z"/>
<path d="M1236 3005 c-42 -22 -55 -44 -56 -92 0 -30 7 -50 24 -70 21 -24 32
-28 76 -28 44 0 55 4 76 28 70 82 -26 211 -120 162z"/>
<path d="M6554 3006 c-108 -47 -72 -196 47 -196 40 0 99 56 99 94 0 42 -28 86
-65 102 -41 17 -42 17 -81 0z"/>
<path d="M5280 2178 c-86 -23 -166 -110 -196 -216 -22 -75 -15 -218 14 -284
28 -64 88 -127 147 -154 71 -33 180 -33 250 0 62 29 117 86 147 151 19 43 23
67 23 165 0 103 -3 121 -26 170 -66 139 -213 208 -359 168z m170 -147 c14 -9
36 -39 50 -67 33 -66 34 -179 3 -239 -37 -70 -66 -90 -133 -90 -54 0 -62 3
-95 35 -67 65 -84 205 -36 298 24 46 39 60 88 78 43 15 87 10 123 -15z"/>
<path d="M6456 2176 c-86 -32 -127 -82 -134 -160 -6 -69 1 -96 34 -136 31 -37
62 -53 174 -95 98 -37 128 -66 113 -111 -12 -36 -45 -54 -101 -54 -37 0 -50 6
-78 34 -19 19 -34 42 -34 51 0 15 -7 16 -47 10 -104 -14 -107 -18 -74 -83 43
-84 127 -131 231 -132 36 0 82 5 103 11 80 22 146 111 147 197 0 100 -52 155
-194 202 -131 43 -163 84 -110 137 21 21 32 25 66 20 41 -6 83 -36 94 -69 3
-12 12 -17 22 -14 9 3 36 10 60 16 50 13 52 26 17 86 -36 62 -98 96 -183 101
-43 2 -81 -2 -106 -11z"/>
<path d="M3366 2171 c-4 -5 -6 -154 -5 -330 1 -262 4 -323 16 -332 18 -16 241
-5 304 14 62 19 134 70 164 115 62 93 71 264 20 368 -61 125 -166 174 -370
174 -68 0 -126 -4 -129 -9z m291 -142 c65 -32 98 -93 97 -184 -1 -73 -17 -119
-57 -163 -23 -25 -103 -52 -154 -52 l-33 0 0 210 0 210 52 0 c32 0 68 -8 95
-21z"/>
<path d="M3990 1840 l0 -340 193 0 c137 0 196 3 205 12 7 7 12 33 12 58 0 25
-5 51 -12 58 -8 8 -53 12 -135 12 l-123 0 0 70 0 69 113 3 112 3 0 60 0 60
-110 1 -110 2 -3 71 -3 70 123 3 123 3 0 60 0 60 -192 3 -193 2 0 -340z"/>
<path d="M4460 2164 c0 -16 174 -604 190 -642 9 -21 15 -23 87 -20 l77 3 109
329 c66 201 105 332 99 338 -5 5 -38 8 -72 6 l-64 -3 -71 -239 c-40 -132 -74
-235 -77 -230 -3 5 -31 101 -62 214 -79 286 -65 260 -147 260 -56 0 -69 -3
-69 -16z"/>
<path d="M5772 1843 l3 -338 65 0 65 0 3 106 3 106 83 5 c149 10 228 70 248
189 18 109 -21 192 -116 242 -36 19 -60 22 -199 25 l-157 4 2 -339z m287 192
c59 -30 64 -114 9 -160 -25 -21 -40 -25 -94 -25 l-64 0 0 100 0 100 60 0 c34
0 74 -7 89 -15z"/>
<path d="M3248 1306 c-57 -15 -112 -56 -135 -99 -10 -19 -17 -55 -17 -87 -1
-101 52 -155 203 -205 95 -31 121 -52 121 -95 0 -46 -31 -70 -89 -70 -54 0
-91 22 -116 70 -9 18 -21 27 -32 25 -10 -2 -39 -7 -65 -10 -55 -7 -58 -16 -28
-74 24 -49 93 -108 139 -121 50 -14 155 -12 205 2 110 33 166 169 115 276 -26
52 -70 83 -165 116 -102 34 -133 53 -140 83 -22 87 119 110 168 27 23 -39 20
-38 87 -22 57 13 60 21 31 79 -26 50 -87 95 -151 108 -61 13 -71 13 -131 -3z"/>
<path d="M4355 1306 c-118 -37 -189 -118 -216 -245 -14 -67 -6 -178 16 -243
22 -63 88 -136 150 -164 65 -31 179 -33 241 -5 71 32 159 160 124 181 -23 14
-114 22 -118 10 -2 -6 -15 -24 -29 -40 -67 -81 -202 -43 -232 65 -14 51 -14
158 0 208 23 83 101 129 178 104 32 -11 43 -22 86 -90 9 -14 17 -14 62 -4 28
7 54 15 57 18 3 3 -1 27 -11 54 -41 122 -182 191 -308 151z"/>
<path d="M4969 1307 c-78 -22 -139 -74 -179 -152 -34 -66 -35 -72 -35 -179 0
-101 3 -117 28 -171 56 -121 139 -175 267 -175 161 1 262 94 292 270 29 170
-48 340 -179 395 -52 22 -140 27 -194 12z m157 -146 c48 -29 76 -98 76 -184 0
-88 -21 -145 -68 -187 -68 -59 -177 -32 -214 54 -46 103 -31 237 35 303 29 29
39 33 87 33 34 0 64 -7 84 -19z"/>
<path d="M6118 1307 c-95 -27 -148 -93 -148 -184 0 -97 62 -162 198 -207 104
-35 129 -59 123 -116 -6 -50 -114 -69 -165 -29 -14 11 -33 33 -41 48 -14 27
-15 28 -76 19 -34 -4 -64 -10 -67 -12 -9 -10 20 -74 50 -110 70 -85 223 -114
335 -62 114 53 149 202 71 301 -24 31 -78 59 -172 91 -108 37 -138 75 -97 125
16 20 28 24 67 23 48 -1 68 -15 99 -69 9 -16 16 -16 68 -5 63 13 67 21 41 73
-50 100 -169 147 -286 114z"/>
<path d="M7615 1314 c-126 -32 -178 -89 -178 -195 0 -102 51 -153 209 -206
119 -40 152 -86 99 -138 -18 -19 -35 -25 -69 -25 -61 0 -89 15 -114 59 l-21
37 -61 -7 c-34 -4 -64 -9 -67 -13 -11 -10 7 -55 40 -98 19 -26 54 -54 87 -71
50 -26 63 -28 147 -25 83 3 95 6 135 33 54 38 88 102 88 167 0 105 -50 157
-194 207 -102 35 -136 59 -136 95 0 76 136 81 175 6 14 -27 20 -31 42 -25 14
3 39 9 55 12 39 8 43 23 20 70 -25 47 -57 78 -103 97 -40 17 -123 27 -154 20z"/>
<path d="M1385 1297 c-3 -7 -4 -158 -3 -337 l3 -325 105 -3 c221 -7 340 48
404 187 17 38 21 66 21 156 0 124 -14 166 -84 238 -69 74 -149 97 -333 97 -78
0 -110 -4 -113 -13z m295 -139 c56 -29 77 -59 92 -129 32 -152 -57 -269 -204
-269 l-38 0 0 210 0 210 53 0 c35 0 68 -8 97 -22z"/>
<path d="M2017 1304 c-4 -4 -7 -155 -7 -335 l0 -329 23 -5 c12 -3 101 -4 197
-3 l175 3 3 62 3 62 -128 3 -128 3 0 70 0 70 110 5 110 5 3 57 3 57 -113 3
-113 3 0 70 0 70 120 5 120 5 0 60 0 60 -186 3 c-102 1 -188 -1 -192 -4z"/>
<path d="M2480 1293 c0 -15 37 -137 161 -535 l40 -128 73 0 c47 0 77 5 84 13
16 20 214 646 207 657 -3 6 -35 10 -71 10 -77 0 -59 31 -145 -262 -35 -120
-66 -218 -69 -218 -3 0 -32 98 -64 218 -32 119 -65 227 -73 240 -12 19 -22 22
-78 22 -54 0 -65 -3 -65 -17z"/>
<path d="M3667 1304 c-4 -4 -7 -155 -7 -335 l0 -329 23 -5 c12 -3 101 -4 197
-3 l175 3 0 60 0 60 -125 5 -125 5 -3 72 -3 72 113 3 113 3 0 55 0 55 -110 5
-110 5 -3 73 -3 72 126 0 126 0 -3 63 -3 62 -186 3 c-102 1 -188 -1 -192 -4z"/>
<path d="M5445 1299 c-3 -8 -4 -160 -3 -339 l3 -325 65 0 65 0 3 108 3 107 58
0 c193 0 308 132 261 301 -14 50 -72 113 -122 134 -58 24 -325 35 -333 14z
m265 -134 c57 -29 74 -79 45 -134 -17 -34 -53 -49 -120 -53 l-50 -2 -3 102 -3
102 51 0 c28 0 64 -7 80 -15z"/>
<path d="M7995 1297 c-3 -7 -4 -158 -3 -337 l3 -325 65 0 65 0 3 118 3 117 34
0 c33 0 35 -2 92 -117 l58 -118 68 -3 c100 -4 100 -10 -25 215 l-28 51 34 22
c49 30 77 80 83 150 10 112 -44 193 -149 225 -66 19 -296 22 -303 2z m274
-132 c32 -16 41 -33 41 -76 0 -64 -48 -99 -135 -99 l-45 0 0 95 0 95 55 0 c31
0 69 -7 84 -15z"/>
<path d="M8545 1298 c-3 -7 -4 -159 -3 -338 l3 -325 195 0 195 0 3 62 3 62
-128 3 -128 3 0 70 0 70 110 5 110 5 3 57 3 57 -113 3 -113 3 0 70 0 70 123 3
123 3 -3 62 -3 62 -188 3 c-145 2 -189 0 -192 -10z"/>
<path d="M6836 1290 c-35 -11 -73 -45 -93 -84 -21 -41 -18 -120 6 -162 l21
-35 -49 -48 c-56 -54 -75 -103 -69 -172 6 -62 46 -115 106 -141 61 -27 169
-22 231 10 l45 24 19 -26 c16 -23 26 -26 77 -26 92 0 112 17 69 56 -12 10 -34
35 -50 55 l-29 37 26 51 c15 27 29 71 31 96 l6 45 -61 0 -60 0 -12 -47 -12
-48 -44 48 c-24 27 -44 52 -44 55 0 4 13 16 28 26 50 33 77 83 77 142 0 56
-18 91 -67 127 -30 22 -108 31 -152 17z m63 -444 c33 -41 61 -77 61 -79 0 -3
-14 -10 -31 -16 -86 -30 -149 3 -149 79 0 30 6 47 25 65 13 14 26 25 28 25 2
0 32 -33 66 -74z"/>
</g>
</svg>
