<svg xmlns="http://www.w3.org/2000/svg" viewBox="0 0 1858 1128"><g fill="none" stroke-width="2"><path stroke="#809ebe" d="M1378.83 345.42c7.28 56.7 71.43 69.48 114.61 87.13 12.32 5.04 26.3 11.77 33.73 21.52 9.93 13.03 8.04 31.95-2.26 43.54-9.96 11.22-26.91 15.97-41.91 17.09-37.57 2.81-78.08-5.43-107.54-29.68q-.53-.43-.52.24l.37 45.64q.01.52.49.74c19 8.74 38.58 13.41 59.27 16.19 53.83 7.25 147.51 3.06 156.9-69.59 14.97-115.82-164.79-99.42-158.88-160.39.9-9.22 5.49-16.44 13.46-21.04q8.11-4.68 12.68-5.67 62.16-13.48 115.31 20.1.4.25.4-.23l-.26-38.08q-.01-.45-.42-.64c-58.47-26.65-208.99-32.43-195.43 73.13" vector-effect="non-scaling-stroke"/><path stroke="#785c3e" d="M515.58 856.37c62.01-24.31 117.44-66.28 154.15-122.13 30.96-47.11 54.2-101.25 61.77-157.1 1.09-8.04 1.75-17.11 1.75-24.64V264.24a.49.49 0 0 0-.49-.49h-467.5q-.49 0-.49.49-.07 140.1 0 280.19c.01 17.57 1.14 32.75 4.4 49.14 9.86 49.57 30.3 96.26 57.72 138.57 39.31 60.67 99.92 105.24 167.84 128.9 1.52.53 3.85 1.1 5.42.64q7.13-2.06 15.43-5.31" vector-effect="non-scaling-stroke"/><path stroke="#809ebe" d="M1002.89 466.65q-63.9-90.94-127.5-182.09c-6.71-9.61-11.77-15.61-22.12-18.73q-5.26-1.59-18.71-1.59-17.39-.01-34.87.02-.44 0-.44.45v276.3a.76.76 0 0 0 .76.76l37.26-.07q.48 0 .48-.47V339.49a.34.34 0 0 1 .62-.2q62.56 89.25 125.24 178.69c10.98 15.67 17.96 23.61 37.39 23.72q20.31.11 40.54.03a.47.46 0 0 0 .47-.46l-.02-276.49a.53.53 0 0 0-.53-.53H1004q-.75 0-.75.75v201.53q0 .64-.36.12M1100.48 476.03c10.52 48.18 50.17 68.96 96.26 73.4 72.34 6.98 143.06-16.89 143.05-102.93q-.01-90.94-.06-181.79a.46.46 0 0 0-.46-.46h-56.94a.36.35 90 0 0-.35.36q.08 84.01-.03 167.95c-.02 17.63-.22 30.22-4.97 44.66-10.14 30.83-38.62 41.04-68.71 37.79-42.01-4.53-53.53-38.42-53.52-74.76q.01-87.73-.01-175.49 0-.51-.5-.51h-56.51a.72.72 0 0 0-.72.72q-.04 88.43.02 175.86c0 13.43.82 23.18 3.45 35.2M1139.646 604.295a.28.28 0 0 0-.28-.281l-7.82-.027a.28.28 0 0 0-.28.279l-.232 66.32a.28.28 0 0 0 .28.28l7.82.027a.28.28 0 0 0 .28-.279l.232-66.32M956.985 606.243a.42.42 0 0 0-.422-.419l-8.9.032a.42.42 0 0 0-.418.421l.03 8.82a.42.42 0 0 0 .422.418l8.9-.03a.42.42 0 0 0 .418-.422l-.03-8.82M1306.015 606.227a.41.41 0 0 0-.408-.412l-8.68-.03a.41.41 0 0 0-.412.408l-.03 8.8a.41.41 0 0 0 .408.412l8.68.03a.41.41 0 0 0 .412-.408l.03-8.8M1494.24 606.27a.36.36 0 0 0-.36-.36h-8.76a.36.36 0 0 0-.36.36v8.84a.36.36 0 0 0 .36.36h8.76a.36.36 0 0 0 .36-.36v-8.84M838.73 657.41a.35.35 0 0 1-.66.16l-26.66-48.59a.35.35 0 0 0-.3-.18l-11.76-.16a.35.35 0 0 0-.35.35v61.47a.35.35 0 0 0 .35.35l8.31.04a.35.35 0 0 0 .35-.35l-.04-49.4a.35.35 0 0 1 .66-.17l27.39 49.59a.35.35 0 0 0 .3.18l11.08.15a.35.35 0 0 0 .35-.35v-61.65a.35.35 0 0 0-.35-.35h-8.31a.35.35 0 0 0-.35.35l-.01 48.56M1204.62 671.87c15.91-.98 21.94-12.87 21.92-27.38q-.01-17.74-.06-35.54 0-.48-.47-.46l-8.07.25q-.52.01-.51.53.25 18.43-.12 36.86c-.18 9.18-3.68 17.58-14.3 17.85-10.53.27-15.14-6.39-15.49-16.24q-.68-19.36-.52-38.76 0-.52-.53-.51l-8.04.17a.52.52 0 0 0-.51.54q.33 14.82.27 29.73-.05 11.77 1.29 16.63 4.84 17.59 25.14 16.33M924.4 624.81l-.21-12.03q-.01-.47-.46-.33l-7.46 2.35q-.55.17-.54.74l.07 9.27q0 .36-.36.37l-9.33.26q-.43.01-.43.45l.04 5.97q.01.39.39.39h9.09q.5 0 .51.5.25 10.75.02 21.49c-.05 2.65.17 5.89.53 8.01 1.68 9.85 12.59 11.34 20.47 8.55q.52-.18.52-.74v-5.81q0-.57-.53-.35c-6.68 2.79-11.84.83-12.22-6.95q-.58-12.03-.07-24.13.03-.6.63-.6l10.91.09q.53 0 .53-.53v-5.89q0-.62-.61-.61l-10.83.16q-.65.01-.66-.63M1521.25 624.75v-11.97q0-.57-.55-.4l-7.52 2.36q-.43.13-.43.58v9.4q0 .54-.53.54l-9.09-.01q-.63 0-.63.62v5.75q0 .63.62.63h9.13a.5.49 90 0 1 .49.5q-.06 13.59.28 27.17c.28 11.54 11.4 14.07 20.45 10.89q.53-.18.53-.75v-5.81q0-.63-.58-.39c-6.06 2.46-11.91 1.12-12.14-6.64q-.19-6.63.04-24.49 0-.48.48-.48h10.7q.75 0 .75-.75v-5.75q0-.5-.5-.5h-11q-.5 0-.5-.5M1108.49 666.09l.02 4.3q0 .64.63.61l6.55-.23q.53-.02.52-.55-.29-14.91-.31-29.76c-.03-18.56-20.94-18.65-32.65-12.17a1.02 1.02 0 0 0-.52.94l.35 6.02q.04.71.62.3c7.92-5.69 23.93-7.91 23.8 6.87a.62.61 3 0 1-.68.61c-10.6-1.13-29.59.25-29.31 15.46q.15 8.16 6.43 11.29 13.38 6.65 23.93-3.94.61-.61.62.25M1249.75 631.25v-5.42q0-.68-.68-.65l-6.96.32q-.61.02-.61.64v44.09q0 .48.48.49l7.4.11q.59 0 .59-.59.01-11.34.28-22.67c.15-6.41 2.38-13.07 8.76-15.43 9.15-3.38 13.95 3.07 14.22 11.63q.42 13.19.24 26.54-.01.73.72.7l6.96-.27q.52-.02.54-.54.51-14.48-.09-28.94c-.36-8.37-4.13-15.18-13.01-16.64q-11.4-1.87-18.21 6.85-.63.81-.63-.22M1372.05 650.05l30.98-.07q.44-.01.47-.45c2.34-36.35-45.55-32.39-40.73 3.44 2.58 19.17 21.85 22.48 36.94 16.32q.54-.22.54-.81v-7.22q0-.59-.5-.29c-11.2 6.76-26.78 5.83-28.33-10.23q-.06-.69.63-.69M890.5 666.02v4.37q0 .64.64.62l6.78-.25q.47-.02.45-.48-.42-10.94-.42-21.86.01-11.32-1.26-14.64c-4.68-12.21-21.92-10.87-31.45-5.37q-.49.28-.46.84l.34 6.01q.04.71.62.3c8.05-5.69 24.11-7.83 23.72 6.67a.92.92 0 0 1-1.06.89c-7.91-1.2-25.2.19-27.89 9.84-5.56 20.01 18.5 24.1 29.6 12.9q.39-.4.39.16M991.854 672.11a24.01 23.3 89.8 0 0 23.216-24.091 24.01 23.3 89.8 0 0-23.384-23.929 24.01 23.3 89.8 0 0-23.216 24.091 24.01 23.3 89.8 0 0 23.384 23.929M1034.5 631.23v-5.33q0-.59-.59-.6l-7.27-.07q-.64-.01-.64.63v44.48q0 .59.59.58l7.32-.12q.57-.01.57-.58c-.01-9.27-1.21-21.1 1.6-29.93 3.33-10.44 18.59-13.51 21.19-.42q.52 2.58.5 4.39-.09 12.95.01 25.98 0 .51.52.51h7.42q.47 0 .47-.46.22-21.64-.04-29.99c-.54-17.62-21.26-20.75-31.3-8.94q-.35.42-.35-.13M1422.75 631.49v-5.79q0-.55-.55-.52l-6.85.34q-.6.03-.6.63l.02 43.98q0 .62.61.62h7.35q.63 0 .62-.63c-.24-9.63-3.68-43.89 16.45-37.6q.7.22.7-.52v-6.24q0-.6-.58-.75c-8.48-2.28-11.7 1-16.7 6.66q-.47.53-.47-.18M1445.57 637.04c-.78 8.89 7.87 12.64 14.47 15.71 3.78 1.76 6.8 5.56 4.1 9.3-3.65 5.04-12.9 2.87-17.3.09q-.66-.42-.71.36l-.37 6.11a1.53 1.53 0 0 0 1 1.52c10.52 3.86 26.29 2.8 27.27-11.45.67-9.8-7.46-12.19-14.32-15.76-3.28-1.71-6.52-4.27-4.63-8.1 2.85-5.78 11.29-3.08 15.7-1.63q.57.19.62-.41l.54-6.06q.05-.53-.46-.69c-10.2-3.29-24.73-2.33-25.91 11.01M956.5 625.65a.33.33 0 0 0-.33-.33h-7.84a.33.33 0 0 0-.33.33v44.76a.33.33 0 0 0 .33.33h7.84a.33.33 0 0 0 .33-.33v-44.76M1305.5 625.84a.59.59 0 0 0-.59-.59h-7.32a.59.59 0 0 0-.59.59v44.4a.59.59 0 0 0 .59.59h7.32a.59.59 0 0 0 .59-.59v-44.4M1336.65 661.61a.39.39 0 0 1-.74 0l-11.92-35.98a.39.39 0 0 0-.37-.27l-8.53-.16a.39.39 0 0 0-.38.52l16.16 44.98a.39.39 0 0 0 .36.26l9.52.04a.39.39 0 0 0 .37-.26l16.09-44.97a.39.39 0 0 0-.36-.52h-7.69a.39.39 0 0 0-.37.27l-12.14 36.09M1493.75 625.68a.35.35 0 0 0-.35-.35h-7.8a.35.35 0 0 0-.35.35v44.72a.35.35 0 0 0 .35.35h7.8a.35.35 0 0 0 .35-.35v-44.72M1559.16 662.5a.3.3 0 0 1-.55-.05q-5.93-17.53-11.43-34.86c-.34-1.07-.15-2.46-1.8-2.38-2.53.12-5.05-.04-7.65.25q-.55.06-.36.58 7.92 21.81 15.85 43.64c2.59 7.14-4.45 16.28-12.32 13.55q-.51-.18-.56.36l-.59 5.87q-.05.43.36.55c9.99 2.98 17.17-2.59 20.54-11.67q6.04-16.27 19-52.41.21-.58-.41-.59l-6.69-.12q-1.24-.02-1.63 1.16l-11.64 34.92q-.11.33-.04.67.06.27-.08.53M858.29 738.4l-.14 37.3q0 .55.55.55h7.22q.6 0 .6-.6l-.03-37.15a.76.75 0 0 1 .76-.75h11q.5 0 .5-.5v-6q0-.5-.5-.5h-11.01q-.63 0-.67-.62c-.55-8.9.07-16.38 11.56-14.63q.61.1.64-.52l.3-5.66q.03-.56-.53-.61c-17.62-1.56-20.67 5.43-20.28 21.5q.01.54-.53.54h-9.48q-.75 0-.75.75v5.75q0 .5.5.5h9.65q.65 0 .64.65M964.237 711.522a.51.51 0 0 0-.516-.504l-8.52.104a.51.51 0 0 0-.504.517l.106 8.659a.51.51 0 0 0 .516.504l8.52-.104a.51.51 0 0 0 .503-.517l-.105-8.659M911.61 741.39c4.38 4.06 11.25 6.6 16.51 9.56 6.99 3.94 7.33 12.78-.02 16.62-6.2 3.24-12.97 1.35-19.11-.99q-.59-.23-.65.4l-.78 7.09q-.05.48.41.67c10.75 4.39 29.25 3.95 33.92-8.99 3.68-10.2-.77-19.17-10.38-24q-8.83-4.45-11.22-6.03c-6.83-4.53-4.27-13.58 3.82-14.49q7.36-.83 14.22 2.07.5.21.59-.33l1.13-7.42q.07-.47-.39-.6c-9.47-2.78-23.38-3.85-30.03 5.41-4.46 6.22-3.76 15.7 1.98 21.03M818.053 777.437a24.02 23.32 90.9 0 0 23.694-23.65 24.02 23.32 90.9 0 0-22.94-24.384 24.02 23.32 90.9 0 0-23.694 23.65 24.02 23.32 90.9 0 0 22.94 24.384M987.16 736.71l.13-5.31q.01-.65-.64-.65h-6.99q-.59 0-.59.59l-.08 44.28q0 .63.63.63h7.37q.52 0 .52-.52-.07-11.34.13-22.66c.12-6.89 3.29-14.95 10.92-16.21 8.45-1.39 12.2 4.85 12.19 12.39q-.01 13.23.01 26.49 0 .51.5.51h7.5q.58 0 .57-.58-.18-13.84-.1-27.67c.11-19.23-20.34-24.54-31.61-11.11q-.48.57-.46-.18M1065.16 770.47c2.03 20.24-15.87 22.14-29.47 14.8a.58.58 0 0 0-.85.44l-.81 6.54q-.06.46.38.64c15.31 6.18 38.87 5.07 39.13-16.91q.26-22.34.22-44.71 0-.52-.52-.52h-6.83q-.65 0-.65.65l-.01 4.85q-.01.39-.26.09-4.32-5.07-9.23-6.15c-19.81-4.37-29.06 15.6-24.53 32.07 3.79 13.79 19.03 17.88 30.27 10.23.83-.57 1.61-1.72 2.62-2.3q.48-.28.54.28M1115.99 771.59l.02 4.16q0 .5.49.5h6.5a.47.47 0 0 0 .47-.46q.29-16.52-.26-31.72c-.63-16.99-21.93-16.45-32.57-10.33q-.48.28-.45.84l.35 5.91q.05.72.63.3c7.49-5.35 24.72-7.89 23.6 6.92q-.03.48-.52.49c-7.79.15-15.01-.71-22.07 3.3-10.65 6.06-9.49 21.71 2.6 24.98q11.96 3.25 20.52-5.18.68-.67.69.29M1146.57 770.64c4.09 5.6 10.4 7.3 17.12 6.56 21.52-2.36 23.06-41.1 3.56-46.68q-12.27-3.51-21.13 5.95-.62.67-.62-.25v-4.84q0-.63-.63-.63h-6.74q-.63 0-.63.63v63.12q0 .5.5.5l7.33.01q.41 0 .41-.41l.34-23.8a.27.27 0 0 1 .49-.16M1212.14 777.44a24.01 23.32 90 0 0 23.32-24.01 24.01 23.32 90 0 0-23.32-24.01 24.01 23.32 90 0 0-23.32 24.01 24.01 23.32 90 0 0 23.32 24.01M1254.39 736.53l.16-5.25q.01-.53-.52-.53H1247q-.5 0-.5.5v44.5q0 .5.5.5h7.49q.52 0 .52-.52c-.03-10.51-4.39-43.27 16.57-38.03q.49.12.48-.39l-.09-6.38q-.01-.58-.57-.71-10.76-2.42-16.38 6.5-.66 1.04-.63-.19M1287.77 755.5h31.22q.47 0 .48-.47c.18-11.22-3.05-22.56-15.69-25.02-30.71-5.97-36.25 44.91-4.75 47.2q8.81.64 16.53-2.6.44-.18.44-.65v-7.45q0-.55-.47-.26c-6.93 4.23-15.49 6.18-22.6 1.12q-5.6-3.99-5.63-11.4 0-.47.47-.47M963.799 731.187a.43.43 0 0 0-.43-.43l-7.6-.014a.43.43 0 0 0-.43.43l-.078 44.64a.43.43 0 0 0 .43.43l7.6.014a.43.43 0 0 0 .43-.43l.078-44.64" vector-effect="non-scaling-stroke"/><path stroke="#f7bd80" d="M277.21 449.48q.05 51.69.06 103.44c0 5.21.33 10.88.93 15.92 6.91 58.36 31.05 115.26 63.99 163.55 36.73 53.81 94.34 94.26 155.15 116.2.79.29 2.51.22 3.3-.07 62.21-22.4 119.9-63.42 157.02-118.6 27.84-41.41 48.88-89.35 58.73-138.74q4.03-20.24 4.35-37.68.43-22.96-.23-104" vector-effect="non-scaling-stroke"/><path stroke="#785c3e" d="m720.51 449.5.24-172.75q0-.5-.51-.5H277.76q-.5 0-.51.5-.59 86.34-.04 172.73" vector-effect="non-scaling-stroke"/><path stroke="#809ebe" d="m720.51 449.5-443.3-.02" vector-effect="non-scaling-stroke"/><path stroke="#785c3e" d="M533.59 384.95c.4 25.02 19.47 46.57 44.67 49.54 10.72 1.26 23.6-.9 32.77-7.06q.5-.33 1.01-.03c22.37 13.01 50.67 8.62 66.65-11.96 19.6-25.26 11.75-60.37-15.59-76.23q-.44-.25-.46-.76-.96-28.6-22.72-43.33c-34.91-23.63-79.2 2.51-79.39 43.31q0 .51-.44.76c-16.91 9.69-26.81 26.39-26.5 45.76M314.59 420.01c28.27-5.28 56.51-6.01 84.67 3.71q.49.17.99.03c9.41-2.65 18.26-5.32 28.54-6.55 18.79-2.25 38.69-.77 57.22 2.91q.49.1.8-.29.42-.52.04-1.13-.23-.38-.22-.82c.85-38.97-.16-77.77.48-116.97q.03-1.69-1.63-1.97c-27.92-4.76-56.79-6.48-84.67 4.28q-.47.18-.95 0c-27.8-10.55-56.28-9.04-85-4.3a1.31 1.31 0 0 0-1.1 1.29l-.04 119.09q0 .88.87.72" vector-effect="non-scaling-stroke"/><path stroke="#f7bd80" d="M599.72 302.63c29.78-10.42 58.52 21.23 45.88 49.21q-10.28 22.75-36.5 22.69-.55 0-.63.54l-1.02 6.64a.97.96 5 0 0 .93 1.1q19.9.59 33.34-11.64c23.13-21.05 18.86-58.69-8.99-73.39-29.81-15.75-65.18 5.11-66.24 38.5q-.01.44.41.31l7.4-2.23q.48-.14.54-.63c1.9-14.82 11.01-26.24 24.88-31.1" vector-effect="non-scaling-stroke"/><path stroke="#785c3e" d="M582.2 333.08c9.21-1.2 21.13 2.67 28.9 7.37a.99.99 0 0 0 1.04 0q13.28-8.03 28.9-7.33 1.71.08 1.27-1.58c-8.8-33.6-52.35-33.83-61.58-.15q-.54 1.96 1.47 1.69" vector-effect="non-scaling-stroke"/><path stroke="#f7bd80" d="M554.94 418.31q22.75 19.28 51.06 5.75.48-.23.11-.61l-5.33-5.38q-.38-.38-.88-.19-19.77 7.54-35.43-2.77c-11.63-7.66-18.06-20.45-16.71-34.37 3.66-37.41 52.98-45.23 69.86-12.73q.27.52.82.31l6.48-2.38a.8.8 0 0 0 .44-1.12q-8.13-15.9-23.58-22.27c-23.46-9.67-50.6 1.94-59.42 25.3-6.72 17.8-2.13 38 12.58 50.46M617.15 345.2l5.45 5.39a.85.84 54.5 0 0 .95.16q8.11-3.91 17.12-3.19.75.06.88-.69l1.22-6.98q.1-.6-.51-.65-13.27-.98-24.97 5.1-.67.34-.14.86" vector-effect="non-scaling-stroke"/><path stroke="#f7bd80" d="M660.23 354.32q15.24 12.13 15.19 30.04c-.07 22.56-20.51 39.85-42.26 36.28-26.71-4.38-39.95-33.72-25.39-56.58q.32-.5-.12-.91l-5.18-4.71a.76.75-52.3 0 0-1.15.15q-12.32 19.44-5.5 39.91c11.27 33.79 55.47 41.93 78 14.05 17.36-21.47 11.3-52-11.58-66.77q-.43-.28-.55.22l-1.79 7.34a.96.95-63.9 0 0 .33.98" vector-effect="non-scaling-stroke"/><path stroke="#785c3e" d="M591.1 361.27a1.08 1.08 0 0 0 1.75-.13l3.03-4.98a1.08 1.08 0 0 0-.68-1.62l-8.9-1.99a1.08 1.08 0 0 0-1.06 1.74l5.86 6.98M627.87 354.49a1.01 1.01 0 0 0-.67 1.5l3.01 5.17a1.01 1.01 0 0 0 1.64.16l6.15-7.05a1.01 1.01 0 0 0-.97-1.65l-9.16 1.87" vector-effect="non-scaling-stroke"/><path stroke="#f7bd80" d="M570.61 356.72c3.75 8.09 9.66 14.48 17.03 19.38a.51.51 0 0 0 .78-.31l1.81-7.41q.14-.56-.33-.9-7.31-5.35-11.48-13.45-.35-.67-1.05-.42l-6.39 2.23q-.68.23-.37.88" vector-effect="non-scaling-stroke"/><path stroke="#785c3e" d="M587.2 382.04c-9.8-5.63-16.53-12.86-21.5-22.3a.4.4 0 0 0-.61-.12c-27.37 23.48-2.91 65.02 31.08 53.31a.34.34 0 0 0 .17-.51q-8.82-13.37-8.65-29.52.01-.57-.49-.86M627.92 413.15c33.11 11.81 56.88-30.53 30.03-53.7a.41.41 0 0 0-.64.12q-7.22 14.62-21.45 22.55-.47.27-.54.8c-.21 1.76-.01 4.04-.12 5.32q-1.19 12.93-8.25 23.92a.53.52 48.8 0 0-.03.5c.22.46.62.35 1 .49" vector-effect="non-scaling-stroke"/><path stroke="#f7bd80" d="M615.46 405.19c.75.99 4.12 4.58 5.58 4.66q.51.03.79-.39 7.19-10.82 7.65-23.78.01-.5-.46-.36l-7.15 2.03a1.14 1.12 86.4 0 0-.8.92q-1.21 8.58-5.66 16-.28.48.05.92" vector-effect="non-scaling-stroke"/><path stroke="#785c3e" d="M611.49 398.85c1.39-.29 3.52-8.56 3.75-10.03q.09-.57-.49-.57h-6.64q-.74 0-.5.7l3.29 9.56a.52.51 74.6 0 0 .59.34" vector-effect="non-scaling-stroke"/><path stroke="#f7bd80" d="M320.59 396.03c26.97-3.83 50.11-3.93 75.95 3.62q.73.21.73-.54v-89.56q0-.52-.49-.7c-25.09-9.15-50.31-8.18-76.42-4.19a.42.42 0 0 0-.36.42v90.44q0 .59.59.51M454.94 393.56q9.74.5 25.27 2.43.57.07.56-.5l-.09-90.25q0-.6-.6-.69c-25.66-3.7-51.28-5.06-76.49 4.51a.54.53 79.7 0 0-.34.5v89.7a.44.43 81.6 0 0 .56.42q25.07-7.44 51.13-6.12" vector-effect="non-scaling-stroke"/><path stroke="#809ebe" d="M337 316.95c-4.69 1.38-2.68 8 1.76 7.29 15-2.41 26.81-3.75 40.58 1.33 3.58 1.31 7.37.71 6.9-3.99a2.42 2.4 8.8 0 0-1.46-1.98q-14.68-6.19-30.54-4.99-12.55.95-17.24 2.34M339 334.77c-7.56 1.38-5.44 8.49 1.57 7.32 13.46-2.26 26.4-3.23 40.08 2.15 4.59 1.81 9-4.84 2.09-7.36-14.62-5.33-28.11-4.97-43.74-2.11M338.48 352.84c-6.49 1.13-4.86 8.63 1.2 7.56 13.65-2.41 26.27-3.3 39.54 1.51 2.28.82 4.86 1.04 6.39-.8 5.9-7.11-18.69-9.98-21.11-10.11q-11.94-.61-26.02 1.84M337.07 371.59c-4.83 1.01-2.62 7.82 1.44 7.16 15.19-2.45 27.5-3.87 41.57 1.64 5.29 2.07 8.96-4.53 4.26-6.49-15.41-6.43-31.26-5.66-47.27-2.31M415.5 320.26c-2.28 3.42 1.27 7.06 4.46 5.98 8.32-2.82 14.68-4.52 23.55-4.15q8.49.36 16.86 1.82c6.91 1.21 8.86-6.05 3.11-7.07-14.48-2.57-28.68-3.94-43.16 1.2-.97.34-4.15 1.21-4.82 2.22M416.66 343.86c2.43 1.47 9.02-1.25 11.88-2.02 11.09-2.97 20.56-1.27 33.2.42 5.54.74 7.31-6.25 1.27-7.28-16.82-2.9-31.31-4-47.04 3.05q-.43.2-.65.62-1.74 3.35 1.34 5.21M417.64 355.35c-6.15 2.41-1.52 8.81 2.81 7.11 14.29-5.62 26.5-4.56 42.04-1.9 4.18.72 6.9-6.47 0-7.55-16.37-2.53-29.64-3.62-44.85 2.34M417.18 373.68c-5.2 2.1-1.59 8.64 3.56 6.77 13.84-5.05 25.91-4.48 40.26-1.88 6.4 1.16 8.27-6.46 1.55-7.43-16.66-2.39-29.94-3.68-45.37 2.54M485.98 498.4q4.01-2.41 7.4-5.64.37-.35.83-.56l1.51-.67q.72-.32.21-.93c-7.01-8.25-18.78-10.16-28.97-8.7q-.91.13-.25-.51 2.63-2.52 3.8-5.97a.66.66 0 0 0-.76-.85c-13.41 2.69-35.12-8.52-42.06 10.83q-.35.99-.7 0c-5.61-15.52-22.36-11.66-34.49-10.3-2.8.31-5.27-.16-8.05-.56q-.53-.08-.38.43 1.02 3.7 3.78 6.39.75.73-.29.58c-9.86-1.48-22.21.44-28.77 8.65q-.25.3.06.54l9.42 7.2q.35.27-.08.35c-11.07 2.06-9.47 11.26-17.61 16.07q-.44.26-.31.76 1.91 7.56 9.46 9.19a.86.86 0 0 1 .55 1.3q-3.72 5.92-10.55 7.85a.31.31 0 0 0-.17.48q5.21 7.37 14.21 8.22.62.06.2.53-4.71 5.26-3.8 12.4.09.65-.45.28c-5.97-4.12-16.89-12.57-19.15-19.62q-4.4-13.72-8.42-27.56c-.83-2.82-2.01-5.93-3.49-7.99-2.34-3.27-5.14-2.92-8.48-3.18q-.55-.04-.85-.51-3.54-5.56-10.25-5.02-2.02.17-.39 1.37 2.83 2.1 4.17 5.36.2.48-.2.81l-3.32 2.7q-.44.36-1 .27-3.34-.49-6.56.44a.41.41 0 0 0-.1.74l3.41 2.03q.57.35.2.9-2.72 4.06-2.62 8.93.01.54-.53.55-2.63.07-4.89 1.36-.67.39.03.73l5.45 2.67a1.07 1.07 0 0 1 .47 1.46c-3.01 5.63.07 12.13 4.48 15.86 3.17 2.69 7.55 5.64 9.34 9.46 5.29 11.28 13.11 21.62 19.09 32.66q1.88 3.47 2.59 7.15 3.12 16.22 2.14 32.84-.03.55.52.5 4.63-.43 8.08-3.46.51-.46.7.2c2.6 8.95 1.32 16.88.16 25.88q-.07.56.43.32 9.63-4.58 15.54-13.43.29-.43.8-.35c8.69 1.34 18.18-2.19 25.8-5.08q.36-.14.56.18l5.19 8.41q.39.63.81.01 3.49-5.18 8.23-9.27a.73.72 69.6 0 1 1.2.55c.03 4.39.11 8.94 1.62 13.03 2.81 7.62 8.26 14.19 13.3 20.45q.32.4.22.9-4.7 23.46-11.93 46.26-1.16 3.66-4.58 10.51-.22.44-.72.47-11.22.57-22.46.56-5.5 0-10.54 4.78-.35.33-.84.4-7.21 1-9.34 7.87a.43.43 0 0 0 .55.54l5.76-1.92q.65-.22.84.43l.91 2.98q.14.48-.2.85-2.5 2.7-3.52 6.25a.3.29-3.2 0 0 .4.35l5.47-2.22q.67-.27 1.07.33l2.16 3.25q.26.38.09.81l-2.39 6.11a.33.33 0 0 0 .47.41l4.85-2.72q.51-.28.87.17c3.41 4.19 8 5.05 12.84 4.32q11-1.68 29.75-7.06 7.75-2.22 10.1-8.92 4.12-11.72 7.27-17.22c3.63-6.34 7.81-15.09 13.47-19.77q12.48-10.29 27.15-17.34a.82.81 58.5 0 0 .29-1.23q-2.57-3.31-6.35-4.99-.56-.25-.14-.7c7.14-7.53 13.32-8.15 22.56-11.35q.8-.28.27-.94l-5.48-6.82q-.24-.29.07-.5c8.5-6.01 16.9-9.85 27.35-6.92q.66.19.68-.51.12-5.49-4.06-8.88-.51-.42.11-.63l8.34-2.87q.6-.21.93.34 10.36 17.45 24.3 32.24.38.4.37.96-.06 2.22-.94 4.33-6.55 15.65-13.24 31.24-.2.47-.7.5-8.84.63-21.85.77-6.83.07-11.64 5.19-.33.35-.81.43-7.6 1.16-9.17 8.75-.14.71.5.38c1.86-.93 8.54-5.01 7.99.66q-.04.46-.34.81-2.39 2.84-3.08 6.56-.13.7.51.39l5.43-2.69q.66-.33 1.07.29l1.48 2.29q.33.5-.01 1-1.87 2.8-2.47 6.08-.14.74.52.38l4.98-2.77q.57-.32.98.19 4.31 5.43 10.81 4.32 10.42-1.78 25.44-6.16c6.67-1.94 10.18-3.96 12.77-10.16q2.88-6.88 7.27-14.16c3.73-6.17 13.23-11.33 19.52-14.6a.68.67-29.9 0 0 .26-.95q-1.71-2.75-4.58-4.05-.59-.28-.16-.77 6.67-7.72 16.8-9.06.82-.11.22-.67-5.11-4.77-11.84-6.45-.46-.12-.63-.57-1.33-3.54-3.17-6.85c-3.08-5.53 1.82-16.3 4.74-21.41q.29-.5.65-.06 14.61 17.56 30.4 34.08a1.25 1.25 0 0 1 .32 1.18q-5.09 21.36-15.11 40.85a1.26 1.26 0 0 1-1.09.69q-10.64.35-21.3.61-6.69.17-11.3 5.46-.35.4-.88.53-6.66 1.68-8.05 8.5-.15.73.51.39c1.78-.9 7.38-4.48 7.37.46q-.01.51-.33.9-2.49 2.93-3.26 6.69a.39.38-7.4 0 0 .55.42l5.36-2.66q.74-.37 1.21.31l2.04 2.94q.29.4.11.87l-1.97 5.28q-.43 1.15.64.54l4.09-2.33q.48-.28.83.15c6.34 7.76 23.47.93 31.88-1.34 8.27-2.24 13.12-3.15 16.42-10.4q4.46-9.79 13.29-30.69c3.04-7.2 13.69-12.28 20.27-15.98a.74.73-39.5 0 0 .12-1.2l-4.63-3.93a.35.34 42.2 0 1-.03-.5q6.89-7.06 16.57-9.08.79-.17.18-.68-6.11-5.14-13.96-6.57-.57-.11-.77-.65c-1.25-3.31-4.78-4.74-7.55-6.75q-8.86-6.45-10.21-17.44c-1.88-15.38-.45-31.43-1.5-47.03q-.23-3.53-3.04-15.75-.13-.6.48-.66c16.36-1.5 34.48-3.79 49.18-11.68 15.04-8.07 20.99-22.1 14.27-37.93-5.14-12.07-21.59-15.89-33.26-14.68-18.55 1.91-34.88 10.16-52.93 13.82-14.35 2.91-66.1 11.09-74.64-4.34q-3.19-5.77.64-12.61c3.16-5.64 13.65-6.39 19.29-6.37q16.08.08 32.18.26.5.01.87.34c14.44 12.92 41.1 10.9 58.34 6.17a.31.31 0 0 0 0-.6c-2.82-.78-7.55-3.09-7.83-6.49q-.05-.66.58-.45c9.01 2.98 14.6.92 23.06-2.43 6.82-2.69 12.28-3.07 19.24-2.31q.76.08.24-.47-11.24-12.14-27.92-8.21-.15.04-.19-.11-.04-.14-.12-.3-.18-.36.17-.53 4.36-2.2 5.61-6.9.19-.73-.52-.48c-8.22 2.84-16.07 3.56-24.48 1.09-17.52-5.15-30.17-2.48-44.82 8.21q-.4.29-.9.26-11.24-.86-29.76-1.29c-13.72-.31-31.53 1.47-38.01 15.45q-3.37 7.26-2.53 15.33c3.93 37.79 74.93 25.81 97.65 21.16 10.89-2.22 23.35-6.58 35.04-9.87 6.47-1.82 20.34-4.36 26.12-.16 4.01 2.92 5.71 10.72 2.04 14.62-10.13 10.78-39.03 12.43-52.96 13.16q-3.92.2-8.52-.6c-24.01-4.18-47.75.8-71.84.36q-27.28-.5-53.89-7.1-.48-.12-.59-.61-.93-4.37-3.87-7.73-.38-.43.19-.48 8.84-.83 14.09-7.93a.56.56 0 0 0-.3-.87q-6.78-1.89-10.29-7.89a.81.81 0 0 1 .53-1.2q7.44-1.64 9.51-9 .14-.49-.28-.77-1.21-.83-2.42-1.69c-3.49-2.5-4.07-7.12-6.91-10.14q-3.48-3.71-8.73-4.38-.48-.06-.06-.31" vector-effect="non-scaling-stroke"/><path stroke="#785c3e" d="M388.69 737.61q1.4 3.79-.72 7.13-.52.81.45.81c10.45-.04 22.25-3.89 32.62-6.46 4.27-1.06 7.18-3.4 8.7-7.79q4.22-12.14 8.81-19.49 18.3-29.27 35.63-59.12c2.33-4.01-.3-10.64-1.15-14.98q-.11-.57.45-.73l88.48-25.8a.77.77 0 0 0 .45-1.13l-4.41-7.51q-.3-.5.07-.94l1.59-1.94q.45-.54 1.04-.16c8.27 5.25 12.72 10.64 18.55 19.71 12.78 19.91 28.29 36.35 44.13 53.81q.33.37.22.86-5.5 24.21-17.15 46.13a1.51 1.49 12.5 0 1-1.26.79q-12.18.52-24.38.7-1.44.02-4.97 1.79-.48.25-.36.77.92 3.85-2.35 6.11a.51.51 0 0 0 .4.91l4.49-1.04q.51-.11.75.35c1.52 2.87.72 4.65-.59 7.35a.8.79 5.9 0 0 .91 1.11l6.24-1.53q.67-.16.98.46 1.9 3.8-.7 6.83a.42.42 0 0 0 .37.69c9.9-1.36 19.31-4.12 28.95-6.65 5.15-1.35 7.35-5.37 9.41-10.26 8.48-20.13 16.95-40.13 28.6-58.7q1.04-1.68.34-4.17-.14-.47-.57-.68c-14.49-6.92-17.96-20.27-17.94-35.1.03-19.23.74-37.34-5.25-55.93a.49.49 0 0 1 .43-.64c20-1.24 74.27-5.94 67.05-38.92q-2.46-11.21-13.23-15.09c-21.79-7.86-46.68 6.72-66.57 11.03-15.24 3.3-86.28 15.99-84.52-14.18.92-15.72 16.6-17.65 28.82-17.28q14.25.42 28.5.55 3.14.02 4.65-1.73.45-.51.02-1.04-1.42-1.76-4.43-1.98c-15.1-1.1-31.89-2.72-46.55.37-22.68 4.78-24.73 35.13-2.65 42.79q6.9 2.39 10.72 2.84c32.64 3.79 63.48-1.36 95.04-11.98 11.95-4.01 40.25-10.59 41.86 10.31 1.64 21.36-46.02 23.5-59.1 24.18q-3.89.2-8.56-.57c-20.96-3.48-44.75-.34-61.5.27q-27.32 1-57.92-5.4-3.42-.72-6.74-1.77a.49.48 15.5 0 0-.62.35q-2.22 9.84-7 18.64c-4.81 8.85-9.76 16.37-8.42 26.51q.07.59-.51.53-7.68-.76-13.08-6.09a.45.45 0 0 0-.77.33q.16 6.28.26 12.57c.14 9.19-3.16 17.07-8.59 24.24q-.32.42-.66.02c-3.01-3.56-8.48-7.93-9.01-12.53a.26.26 0 0 0-.52.01c-.57 7.67.21 14.83-3.8 21.75q-5.69 9.83-13.41 18.06a3.15 3.13 72.5 0 0-.76 1.47c-4.08 19.53-8.46 40.53-17.58 58.31a1.31 1.29 11.9 0 1-1.09.7q-11.69.58-23.34.69-3.64.04-6.81 1.77-.5.28-.41.85.57 3.61-2.48 5.5-.42.26-.21.71l.11.24q.13.27.42.23l5.03-.79q.51-.08.66.41 1.29 4.11-1.42 7.25a.81.81 0 0 0 .8 1.32l6.21-1.46q.62-.15.85.45M464.07 532.81q1.3-1.31 2.4-2.79.33-.45.07-.94l-5.03-9.53a.91.9 53.7 0 1 .16-1.06c3.3-3.32 7.02-6.53 5.34-11.71-2.4-7.34-8.71-6.65-14.73-5.06q-.46.13-.9-.06l-17.17-7.42a1.76 1.75-57.8 0 0-2.01.46l-6.1 7.01a.45.45 0 0 1-.68-.01l-6.29-7.41a.76.75 57.9 0 0-.86-.2l-18.21 7.71q-.51.22-1.03.04c-14.2-4.74-20.37 9.56-8.66 16.53a.71.7 30.6 0 1 .25.96l-5.58 9.65q-.25.45.08.84l16.8 20.29q.33.39.33.9v12.31q0 .54.42.88c2.39 1.93 6.77 3.47 7.38 6.79.42 2.34 1.08 8.46 3.7 9.32q11.55 3.75 22.86.42c1.29-.38 3.14-.79 3.42-2.23q.93-4.74 2.29-9.47.14-.49.58-.76l6.14-3.85q.46-.3.46-.84v-12.63q0-.48.3-.85 6.9-8.48 14.13-16.67.07-.07.07-.17 0-.13-.01-.27 0-.1.08-.18M307.97 510.6q-1.23 2.71-.9 5.67.05.48.43.77l5.63 4.41q.45.35.22.86-1.94 4.46-6.55 4.12-.5-.04-.44.46c.68 6.12 5.85 9.92 11.23 14.04 3.45 2.65 6.68 11.35 9.24 15.44 13.92 22.17 26.16 45.38 40.56 67.22q.72 1.09 1.76 1.82c3.32 2.32 18.09-3.22 22-4.71a.7.7 0 0 0 .42-.88c-2.73-8.07-1.23-15.67-1.47-24.14q-.02-.56-.42-.18-5.6 5.36-13.42 6.16-.53.05-.47-.48c1.64-15.06-9.18-23.85-13.01-37.1q-.14-.48-.55-.79c-7.48-5.63-14.87-11.34-21.29-18.2-3.21-3.44-4.33-6.93-5.68-11.34q-5.81-19.04-7.49-24.75-.95-3.24-2.85-6.41a1.76 1.75-33 0 0-2.52-.53l-2.38 1.67q-.47.33-1.04.31-1.78-.07-3.56-.23-.48-.04-.96.03-1.38.2-1.55 1.19-.07.41.22.7c1.92 1.94 5.7 4.84 1.15 7.05q-4.49 2.2-6.04-2.17a.15.15 0 0 0-.27-.01" vector-effect="non-scaling-stroke"/><path stroke="#785c3e" d="M516.97 723.73q2.17 3.8-.37 7.17a.41.41 0 0 0 .35.66c6.2-.35 33.49-5.49 36.35-10.75q5.31-9.8 20.83-40.4 2.04-4.03 5.59-7.55c3.72-3.68.47-6.69-1.26-10.24-3.61-7.45 2.2-20.03 6.03-26.3a2.53 2.53 0 0 0-.61-3.33q-5.86-4.53-10.72-9.98c-2.98-3.35-22.39.46-26.91 1.62a.47.46-33.5 0 0-.17.82q3.25 2.46 3.82 6.57.07.51-.44.48c-6.38-.4-11.96-1.33-18.47-.69a.56.56 0 0 0-.42.85q9.67 15.85 22.46 29.55c3.87 4.16 1.2 9.59-.66 13.95q-6.42 15.02-12.92 30.07a.97.96-80.6 0 1-.8.58q-11.74.86-23.43 1c-2.81.03-4.94.53-7.28 1.7q-.89.44-.71 1.42.6 3.3-1.97 5.44a.5.49 18 0 0 .44.86l4.45-1.11q.76-.19 1.03.55 1.5 4.07-1.44 7.31a.47.47 0 0 0 .46.78l5.86-1.42q.6-.14.91.39M402.32 519.95a.34.34 0 0 0-.17.63l14.01 7.94a.34.34 0 0 0 .51-.27l.55-8.06a.34.34 0 0 0-.34-.37l-14.56.13M412.62 548.47c.21.92 8.99 6.71 10.42 7.69a1.62 1.61-73 0 1 .71 1.34v6.21q0 .5-.38.82-5.21 4.33-11.99 3.25-.63-.1-.62.53c.07 5.86 12.43 1.05 14.83-.49q.45-.28.88.02c2.6 1.81 14.93 6.27 14.26.29q-.05-.46-.52-.39-6.61 1.11-11.88-3.1-.48-.38-.47-.98l.03-6.24q0-.55.48-.81l10.83-5.84q.53-.29.47-.89-1.05-9.45-2.33-18.86-.26-1.87 1.64-3.04 6.29-3.86 12.6-7.48a.3.3 0 0 0-.15-.56l-17.64.23q-.54 0-.54.54v26.27a.99.99 0 0 1-.99.99l-19.31.09a.34.34 0 0 0-.33.41" vector-effect="non-scaling-stroke"/><path stroke="#809ebe" d="M1087 655.79c-4.01 12.27 23.41 14.04 20.2-6.06q-.06-.41-.47-.43c-5.86-.28-17.47-.45-19.73 6.49M1394.53 643.22c-.06-15.66-21.27-15.97-22.96.03q-.06.5.44.5H1394q.53 0 .53-.53M869.81 654.06c-7.92 11.73 21.84 18.61 19.61-4.18q-.05-.5-.55-.54c-5.41-.44-15.72-.22-19.06 4.72M991.84 665.26a17 14.14 89.8 0 0 14.08-17.05 17 14.14 89.8 0 0-14.2-16.95 17 14.14 89.8 0 0-14.08 17.05 17 14.14 89.8 0 0 14.2 16.95M818.44 770.57a16.99 14.16 90 0 0 14.16-16.99 16.99 14.16 90 0 0-14.16-16.99 16.99 14.16 90 0 0-14.16 16.99 16.99 14.16 90 0 0 14.16 16.99M1052.324 769.51a16.46 12.9 90.3 0 0 12.986-16.393 16.46 12.9 90.3 0 0-12.814-16.527 16.46 12.9 90.3 0 0-12.986 16.392 16.46 12.9 90.3 0 0 12.814 16.528M1094.7 760.22c-5.15 10.83 15.57 14.84 19.67 2.11q.58-1.79.39-6.94-.01-.45-.46-.52c-5.46-.8-16.77-.61-19.6 5.35M1158.673 770.496a17.04 12.97 91.2 0 0 13.324-16.764 17.04 12.97 91.2 0 0-12.61-17.308 17.04 12.97 91.2 0 0-13.324 16.764 17.04 12.97 91.2 0 0 12.61 17.308M1212.16 770.56a16.97 14.16 89.9 0 0 14.13-16.995 16.97 14.16 89.9 0 0-14.19-16.945 16.97 14.16 89.9 0 0-14.13 16.995 16.97 14.16 89.9 0 0 14.19 16.945M1287.79 749h21.96q.61 0 .6-.61c-.32-16-21.74-15.27-22.99.14a.43.43 0 0 0 .43.47" vector-effect="non-scaling-stroke"/></g><path fill="#003d7c" d="M0 0h1858v1128H0V0Zm1378.83 345.42c7.28 56.7 71.43 69.48 114.61 87.13 12.32 5.04 26.3 11.77 33.73 21.52 9.93 13.03 8.04 31.95-2.26 43.54-9.96 11.22-26.91 15.97-41.91 17.09-37.57 2.81-78.08-5.43-107.54-29.68q-.53-.43-.52.24l.37 45.64q.01.52.49.74c19 8.74 38.58 13.41 59.27 16.19 53.83 7.25 147.51 3.06 156.9-69.59 14.97-115.82-164.79-99.42-158.88-160.39.9-9.22 5.49-16.44 13.46-21.04q8.11-4.68 12.68-5.67 62.16-13.48 115.31 20.1.4.25.4-.23l-.26-38.08q-.01-.45-.42-.64c-58.47-26.65-208.99-32.43-195.43 73.13ZM515.58 856.37c62.01-24.31 117.44-66.28 154.15-122.13 30.96-47.11 54.2-101.25 61.77-157.1 1.09-8.04 1.75-17.11 1.75-24.64V264.24a.49.49 0 0 0-.49-.49h-467.5q-.49 0-.49.49-.07 140.1 0 280.19c.01 17.57 1.14 32.75 4.4 49.14 9.86 49.57 30.3 96.26 57.72 138.57 39.31 60.67 99.92 105.24 167.84 128.9 1.52.53 3.85 1.1 5.42.64q7.13-2.06 15.43-5.31Zm487.31-389.72q-63.9-90.94-127.5-182.09c-6.71-9.61-11.77-15.61-22.12-18.73q-5.26-1.59-18.71-1.59-17.39-.01-34.87.02-.44 0-.44.45v276.3a.76.76 0 0 0 .76.76l37.26-.07q.48 0 .48-.47V339.49a.34.34 0 0 1 .62-.2q62.56 89.25 125.24 178.69c10.98 15.67 17.96 23.61 37.39 23.72q20.31.11 40.54.03a.47.46 0 0 0 .47-.46l-.02-276.49a.53.53 0 0 0-.53-.53H1004q-.75 0-.75.75v201.53q0 .64-.36.12Zm97.59 9.38c10.52 48.18 50.17 68.96 96.26 73.4 72.34 6.98 143.06-16.89 143.05-102.93q-.01-90.94-.06-181.79a.46.46 0 0 0-.46-.46h-56.94a.36.35 90 0 0-.35.36q.08 84.01-.03 167.95c-.02 17.63-.22 30.22-4.97 44.66-10.14 30.83-38.62 41.04-68.71 37.79-42.01-4.53-53.53-38.42-53.52-74.76q.01-87.73-.01-175.49 0-.51-.5-.51h-56.51a.72.72 0 0 0-.72.72q-.04 88.43.02 175.86c0 13.43.82 23.18 3.45 35.2Zm39.166 128.265a.28.28 0 0 0-.28-.281l-7.82-.027a.28.28 0 0 0-.28.279l-.232 66.32a.28.28 0 0 0 .28.28l7.82.027a.28.28 0 0 0 .28-.279l.232-66.32Zm-182.661 1.948a.42.42 0 0 0-.422-.419l-8.9.032a.42.42 0 0 0-.418.421l.03 8.82a.42.42 0 0 0 .422.418l8.9-.03a.42.42 0 0 0 .418-.422l-.03-8.82Zm349.03-.016a.41.41 0 0 0-.408-.412l-8.68-.03a.41.41 0 0 0-.412.408l-.03 8.8a.41.41 0 0 0 .408.412l8.68.03a.41.41 0 0 0 .412-.408l.03-8.8Zm188.225.043a.36.36 0 0 0-.36-.36h-8.76a.36.36 0 0 0-.36.36v8.84a.36.36 0 0 0 .36.36h8.76a.36.36 0 0 0 .36-.36v-8.84Zm-655.51 51.14a.35.35 0 0 1-.66.16l-26.66-48.59a.35.35 0 0 0-.3-.18l-11.76-.16a.35.35 0 0 0-.35.35v61.47a.35.35 0 0 0 .35.35l8.31.04a.35.35 0 0 0 .35-.35l-.04-49.4a.35.35 0 0 1 .66-.17l27.39 49.59a.35.35 0 0 0 .3.18l11.08.15a.35.35 0 0 0 .35-.35v-61.65a.35.35 0 0 0-.35-.35h-8.31a.35.35 0 0 0-.35.35l-.01 48.56Zm365.89 14.46c15.91-.98 21.94-12.87 21.92-27.38q-.01-17.74-.06-35.54 0-.48-.47-.46l-8.07.25q-.52.01-.51.53.25 18.43-.12 36.86c-.18 9.18-3.68 17.58-14.3 17.85-10.53.27-15.14-6.39-15.49-16.24q-.68-19.36-.52-38.76 0-.52-.53-.51l-8.04.17a.52.52 0 0 0-.51.54q.33 14.82.27 29.73-.05 11.77 1.29 16.63 4.84 17.59 25.14 16.33ZM924.4 624.81l-.21-12.03q-.01-.47-.46-.33l-7.46 2.35q-.55.17-.54.74l.07 9.27q0 .36-.36.37l-9.33.26q-.43.01-.43.45l.04 5.97q.01.39.39.39h9.09q.5 0 .51.5.25 10.75.02 21.49c-.05 2.65.17 5.89.53 8.01 1.68 9.85 12.59 11.34 20.47 8.55q.52-.18.52-.74v-5.81q0-.57-.53-.35c-6.68 2.79-11.84.83-12.22-6.95q-.58-12.03-.07-24.13.03-.6.63-.6l10.91.09q.53 0 .53-.53v-5.89q0-.62-.61-.61l-10.83.16q-.65.01-.66-.63Zm596.85-.06v-11.97q0-.57-.55-.4l-7.52 2.36q-.43.13-.43.58v9.4q0 .54-.53.54l-9.09-.01q-.63 0-.63.62v5.75q0 .63.62.63h9.13a.5.49 90 0 1 .49.5q-.06 13.59.28 27.17c.28 11.54 11.4 14.07 20.45 10.89q.53-.18.53-.75v-5.81q0-.63-.58-.39c-6.06 2.46-11.91 1.12-12.14-6.64q-.19-6.63.04-24.49 0-.48.48-.48h10.7q.75 0 .75-.75v-5.75q0-.5-.5-.5h-11q-.5 0-.5-.5Zm-412.76 41.34.02 4.3q0 .64.63.61l6.55-.23q.53-.02.52-.55-.29-14.91-.31-29.76c-.03-18.56-20.94-18.65-32.65-12.17a1.02 1.02 0 0 0-.52.94l.35 6.02q.04.71.62.3c7.92-5.69 23.93-7.91 23.8 6.87a.62.61 3 0 1-.68.61c-10.6-1.13-29.59.25-29.31 15.46q.15 8.16 6.43 11.29 13.38 6.65 23.93-3.94.61-.61.62.25Zm141.26-34.84v-5.42q0-.68-.68-.65l-6.96.32q-.61.02-.61.64v44.09q0 .48.48.49l7.4.11q.59 0 .59-.59.01-11.34.28-22.67c.15-6.41 2.38-13.07 8.76-15.43 9.15-3.38 13.95 3.07 14.22 11.63q.42 13.19.24 26.54-.01.73.72.7l6.96-.27q.52-.02.54-.54.51-14.48-.09-28.94c-.36-8.37-4.13-15.18-13.01-16.64q-11.4-1.87-18.21 6.85-.63.81-.63-.22Zm122.3 18.8 30.98-.07q.44-.01.47-.45c2.34-36.35-45.55-32.39-40.73 3.44 2.58 19.17 21.85 22.48 36.94 16.32q.54-.22.54-.81v-7.22q0-.59-.5-.29c-11.2 6.76-26.78 5.83-28.33-10.23q-.06-.69.63-.69ZM890.5 666.02v4.37q0 .64.64.62l6.78-.25q.47-.02.45-.48-.42-10.94-.42-21.86.01-11.32-1.26-14.64c-4.68-12.21-21.92-10.87-31.45-5.37q-.49.28-.46.84l.34 6.01q.04.71.62.3c8.05-5.69 24.11-7.83 23.72 6.67a.92.92 0 0 1-1.06.89c-7.91-1.2-25.2.19-27.89 9.84-5.56 20.01 18.5 24.1 29.6 12.9q.39-.4.39.16Zm101.354 6.09a24.01 23.3 89.8 0 0 23.216-24.091 24.01 23.3 89.8 0 0-23.384-23.929 24.01 23.3 89.8 0 0-23.216 24.091 24.01 23.3 89.8 0 0 23.384 23.929Zm42.646-40.88v-5.33q0-.59-.59-.6l-7.27-.07q-.64-.01-.64.63v44.48q0 .59.59.58l7.32-.12q.57-.01.57-.58c-.01-9.27-1.21-21.1 1.6-29.93 3.33-10.44 18.59-13.51 21.19-.42q.52 2.58.5 4.39-.09 12.95.01 25.98 0 .51.52.51h7.42q.47 0 .47-.46.22-21.64-.04-29.99c-.54-17.62-21.26-20.75-31.3-8.94q-.35.42-.35-.13Zm388.25.26v-5.79q0-.55-.55-.52l-6.85.34q-.6.03-.6.63l.02 43.98q0 .62.61.62h7.35q.63 0 .62-.63c-.24-9.63-3.68-43.89 16.45-37.6q.7.22.7-.52v-6.24q0-.6-.58-.75c-8.48-2.28-11.7 1-16.7 6.66q-.47.53-.47-.18Zm22.82 5.55c-.78 8.89 7.87 12.64 14.47 15.71 3.78 1.76 6.8 5.56 4.1 9.3-3.65 5.04-12.9 2.87-17.3.09q-.66-.42-.71.36l-.37 6.11a1.53 1.53 0 0 0 1 1.52c10.52 3.86 26.29 2.8 27.27-11.45.67-9.8-7.46-12.19-14.32-15.76-3.28-1.71-6.52-4.27-4.63-8.1 2.85-5.78 11.29-3.08 15.7-1.63q.57.19.62-.41l.54-6.06q.05-.53-.46-.69c-10.2-3.29-24.73-2.33-25.91 11.01ZM956.5 625.65a.33.33 0 0 0-.33-.33h-7.84a.33.33 0 0 0-.33.33v44.76a.33.33 0 0 0 .33.33h7.84a.33.33 0 0 0 .33-.33v-44.76Zm349 .19a.59.59 0 0 0-.59-.59h-7.32a.59.59 0 0 0-.59.59v44.4a.59.59 0 0 0 .59.59h7.32a.59.59 0 0 0 .59-.59v-44.4Zm31.15 35.77a.39.39 0 0 1-.74 0l-11.92-35.98a.39.39 0 0 0-.37-.27l-8.53-.16a.39.39 0 0 0-.38.52l16.16 44.98a.39.39 0 0 0 .36.26l9.52.04a.39.39 0 0 0 .37-.26l16.09-44.97a.39.39 0 0 0-.36-.52h-7.69a.39.39 0 0 0-.37.27l-12.14 36.09Zm157.1-35.93a.35.35 0 0 0-.35-.35h-7.8a.35.35 0 0 0-.35.35v44.72a.35.35 0 0 0 .35.35h7.8a.35.35 0 0 0 .35-.35v-44.72Zm65.41 36.82a.3.3 0 0 1-.55-.05q-5.93-17.53-11.43-34.86c-.34-1.07-.15-2.46-1.8-2.38-2.53.12-5.05-.04-7.65.25q-.55.06-.36.58 7.92 21.81 15.85 43.64c2.59 7.14-4.45 16.28-12.32 13.55q-.51-.18-.56.36l-.59 5.87q-.05.43.36.55c9.99 2.98 17.17-2.59 20.54-11.67q6.04-16.27 19-52.41.21-.58-.41-.59l-6.69-.12q-1.24-.02-1.63 1.16l-11.64 34.92q-.11.33-.04.67.06.27-.08.53Zm-700.87 75.9-.14 37.3q0 .55.55.55h7.22q.6 0 .6-.6l-.03-37.15a.76.75 0 0 1 .76-.75h11q.5 0 .5-.5v-6q0-.5-.5-.5h-11.01q-.63 0-.67-.62c-.55-8.9.07-16.38 11.56-14.63q.61.1.64-.52l.3-5.66q.03-.56-.53-.61c-17.62-1.56-20.67 5.43-20.28 21.5q.01.54-.53.54h-9.48q-.75 0-.75.75v5.75q0 .5.5.5h9.65q.65 0 .64.65Zm105.947-26.878a.51.51 0 0 0-.516-.504l-8.52.104a.51.51 0 0 0-.504.517l.106 8.659a.51.51 0 0 0 .516.504l8.52-.104a.51.51 0 0 0 .503-.517l-.105-8.659ZM911.61 741.39c4.38 4.06 11.25 6.6 16.51 9.56 6.99 3.94 7.33 12.78-.02 16.62-6.2 3.24-12.97 1.35-19.11-.99q-.59-.23-.65.4l-.78 7.09q-.05.48.41.67c10.75 4.39 29.25 3.95 33.92-8.99 3.68-10.2-.77-19.17-10.38-24q-8.83-4.45-11.22-6.03c-6.83-4.53-4.27-13.58 3.82-14.49q7.36-.83 14.22 2.07.5.21.59-.33l1.13-7.42q.07-.47-.39-.6c-9.47-2.78-23.38-3.85-30.03 5.41-4.46 6.22-3.76 15.7 1.98 21.03Zm-93.557 36.047a24.02 23.32 90.9 0 0 23.694-23.65 24.02 23.32 90.9 0 0-22.94-24.384 24.02 23.32 90.9 0 0-23.694 23.65 24.02 23.32 90.9 0 0 22.94 24.384ZM987.16 736.71l.13-5.31q.01-.65-.64-.65h-6.99q-.59 0-.59.59l-.08 44.28q0 .63.63.63h7.37q.52 0 .52-.52-.07-11.34.13-22.66c.12-6.89 3.29-14.95 10.92-16.21 8.45-1.39 12.2 4.85 12.19 12.39q-.01 13.23.01 26.49 0 .51.5.51h7.5q.58 0 .57-.58-.18-13.84-.1-27.67c.11-19.23-20.34-24.54-31.61-11.11q-.48.57-.46-.18Zm78 33.76c2.03 20.24-15.87 22.14-29.47 14.8a.58.58 0 0 0-.85.44l-.81 6.54q-.06.46.38.64c15.31 6.18 38.87 5.07 39.13-16.91q.26-22.34.22-44.71 0-.52-.52-.52h-6.83q-.65 0-.65.65l-.01 4.85q-.01.39-.26.09-4.32-5.07-9.23-6.15c-19.81-4.37-29.06 15.6-24.53 32.07 3.79 13.79 19.03 17.88 30.27 10.23.83-.57 1.61-1.72 2.62-2.3q.48-.28.54.28Zm50.83 1.12.02 4.16q0 .5.49.5h6.5a.47.47 0 0 0 .47-.46q.29-16.52-.26-31.72c-.63-16.99-21.93-16.45-32.57-10.33q-.48.28-.45.84l.35 5.91q.05.72.63.3c7.49-5.35 24.72-7.89 23.6 6.92q-.03.48-.52.49c-7.79.15-15.01-.71-22.07 3.3-10.65 6.06-9.49 21.71 2.6 24.98q11.96 3.25 20.52-5.18.68-.67.69.29Zm30.58-.95c4.09 5.6 10.4 7.3 17.12 6.56 21.52-2.36 23.06-41.1 3.56-46.68q-12.27-3.51-21.13 5.95-.62.67-.62-.25v-4.84q0-.63-.63-.63h-6.74q-.63 0-.63.63v63.12q0 .5.5.5l7.33.01q.41 0 .41-.41l.34-23.8a.27.27 0 0 1 .49-.16Zm65.57 6.8a24.01 23.32 90 0 0 23.32-24.01 24.01 23.32 90 0 0-23.32-24.01 24.01 23.32 90 0 0-23.32 24.01 24.01 23.32 90 0 0 23.32 24.01Zm42.25-40.91.16-5.25q.01-.53-.52-.53H1247q-.5 0-.5.5v44.5q0 .5.5.5h7.49q.52 0 .52-.52c-.03-10.51-4.39-43.27 16.57-38.03q.49.12.48-.39l-.09-6.38q-.01-.58-.57-.71-10.76-2.42-16.38 6.5-.66 1.04-.63-.19Zm33.38 18.97h31.22q.47 0 .48-.47c.18-11.22-3.05-22.56-15.69-25.02-30.71-5.97-36.25 44.91-4.75 47.2q8.81.64 16.53-2.6.44-.18.44-.65v-7.45q0-.55-.47-.26c-6.93 4.23-15.49 6.18-22.6 1.12q-5.6-3.99-5.63-11.4 0-.47.47-.47Zm-323.971-24.313a.43.43 0 0 0-.43-.43l-7.6-.014a.43.43 0 0 0-.43.43l-.078 44.64a.43.43 0 0 0 .43.43l7.6.014a.43.43 0 0 0 .43-.43l.078-44.64Z"/><path fill="#fff" d="M1493.44 432.55c-43.18-17.65-107.33-30.43-114.61-87.13-13.56-105.56 136.96-99.78 195.43-73.13q.41.19.42.64l.26 38.08q0 .48-.4.23-53.15-33.58-115.31-20.1-4.57.99-12.68 5.67c-7.97 4.6-12.56 11.82-13.46 21.04-5.91 60.97 173.85 44.57 158.88 160.39-9.39 72.65-103.07 76.84-156.9 69.59-20.69-2.78-40.27-7.45-59.27-16.19q-.48-.22-.49-.74l-.37-45.64q-.01-.67.52-.24c29.46 24.25 69.97 32.49 107.54 29.68 15-1.12 31.95-5.87 41.91-17.09 10.3-11.59 12.19-30.51 2.26-43.54-7.43-9.75-21.41-16.48-33.73-21.52Z"/><path fill="#ef7b00" d="M669.73 734.24c-36.71 55.85-92.14 97.82-154.15 122.13q-8.3 3.25-15.43 5.31c-1.57.46-3.9-.11-5.42-.64-67.92-23.66-128.53-68.23-167.84-128.9-27.42-42.31-47.86-89-57.72-138.57-3.26-16.39-4.39-31.57-4.4-49.14q-.07-140.09 0-280.19 0-.49.49-.49h467.5a.49.49 0 0 1 .49.49V552.5c0 7.53-.66 16.6-1.75 24.64-7.57 55.85-30.81 109.99-61.77 157.1ZM277.21 449.48q.05 51.69.06 103.44c0 5.21.33 10.88.93 15.92 6.91 58.36 31.05 115.26 63.99 163.55 36.73 53.81 94.34 94.26 155.15 116.2.79.29 2.51.22 3.3-.07 62.21-22.4 119.9-63.42 157.02-118.6 27.84-41.41 48.88-89.35 58.73-138.74q4.03-20.24 4.35-37.68.43-22.96-.23-104l.24-172.75q0-.5-.51-.5H277.76q-.5 0-.51.5-.59 86.34-.04 172.73Z"/><path fill="#fff" d="M1003.25 466.53V265q0-.75.75-.75h37.46a.53.53 0 0 1 .53.53l.02 276.49a.47.46 0 0 1-.47.46q-20.23.08-40.54-.03c-19.43-.11-26.41-8.05-37.39-23.72q-62.68-89.44-125.24-178.69a.34.34 0 0 0-.62.2v201.74q0 .47-.48.47l-37.26.07a.76.76 0 0 1-.76-.76v-276.3q0-.45.44-.45 17.48-.03 34.87-.02 13.45 0 18.71 1.59c10.35 3.12 15.41 9.12 22.12 18.73q63.6 91.15 127.5 182.09.36.52.36-.12ZM1196.74 549.43c-46.09-4.44-85.74-25.22-96.26-73.4-2.63-12.02-3.45-21.77-3.45-35.2q-.06-87.43-.02-175.86a.72.72 0 0 1 .72-.72h56.51q.5 0 .5.51.02 87.76.01 175.49c-.01 36.34 11.51 70.23 53.52 74.76 30.09 3.25 58.57-6.96 68.71-37.79 4.75-14.44 4.95-27.03 4.97-44.66q.11-83.94.03-167.95a.36.35 90 0 1 .35-.36h56.94a.46.46 0 0 1 .46.46q.05 90.85.06 181.79c.01 86.04-70.71 109.91-143.05 102.93Z"/><path fill="#003d7c" d="m720.51 449.5-443.3-.02q-.55-86.39.04-172.73.01-.5.51-.5h442.48q.51 0 .51.5l-.24 172.75Zm-186.92-64.55c.4 25.02 19.47 46.57 44.67 49.54 10.72 1.26 23.6-.9 32.77-7.06q.5-.33 1.01-.03c22.37 13.01 50.67 8.62 66.65-11.96 19.6-25.26 11.75-60.37-15.59-76.23q-.44-.25-.46-.76-.96-28.6-22.72-43.33c-34.91-23.63-79.2 2.51-79.39 43.31q0 .51-.44.76c-16.91 9.69-26.81 26.39-26.5 45.76Zm-219 35.06c28.27-5.28 56.51-6.01 84.67 3.71q.49.17.99.03c9.41-2.65 18.26-5.32 28.54-6.55 18.79-2.25 38.69-.77 57.22 2.91q.49.1.8-.29.42-.52.04-1.13-.23-.38-.22-.82c.85-38.97-.16-77.77.48-116.97q.03-1.69-1.63-1.97c-27.92-4.76-56.79-6.48-84.67 4.28q-.47.18-.95 0c-27.8-10.55-56.28-9.04-85-4.3a1.31 1.31 0 0 0-1.1 1.29l-.04 119.09q0 .88.87.72Z"/><path fill="#ef7b00" d="M578.26 434.49c-25.2-2.97-44.27-24.52-44.67-49.54-.31-19.37 9.59-36.07 26.5-45.76q.44-.25.44-.76c.19-40.8 44.48-66.94 79.39-43.31q21.76 14.73 22.72 43.33.02.51.46.76c27.34 15.86 35.19 50.97 15.59 76.23-15.98 20.58-44.28 24.97-66.65 11.96q-.51-.3-1.01.03c-9.17 6.16-22.05 8.32-32.77 7.06Zm21.46-131.86c29.78-10.42 58.52 21.23 45.88 49.21q-10.28 22.75-36.5 22.69-.55 0-.63.54l-1.02 6.64a.97.96 5 0 0 .93 1.1q19.9.59 33.34-11.64c23.13-21.05 18.86-58.69-8.99-73.39-29.81-15.75-65.18 5.11-66.24 38.5q-.01.44.41.31l7.4-2.23q.48-.14.54-.63c1.9-14.82 11.01-26.24 24.88-31.1Zm-17.52 30.45c9.21-1.2 21.13 2.67 28.9 7.37a.99.99 0 0 0 1.04 0q13.28-8.03 28.9-7.33 1.71.08 1.27-1.58c-8.8-33.6-52.35-33.83-61.58-.15q-.54 1.96 1.47 1.69Zm-27.26 85.23q22.75 19.28 51.06 5.75.48-.23.11-.61l-5.33-5.38q-.38-.38-.88-.19-19.77 7.54-35.43-2.77c-11.63-7.66-18.06-20.45-16.71-34.37 3.66-37.41 52.98-45.23 69.86-12.73q.27.52.82.31l6.48-2.38a.8.8 0 0 0 .44-1.12q-8.13-15.9-23.58-22.27c-23.46-9.67-50.6 1.94-59.42 25.3-6.72 17.8-2.13 38 12.58 50.46Zm62.21-73.11 5.45 5.39a.85.84 54.5 0 0 .95.16q8.11-3.91 17.12-3.19.75.06.88-.69l1.22-6.98q.1-.6-.51-.65-13.27-.98-24.97 5.1-.67.34-.14.86Zm43.08 9.12q15.24 12.13 15.19 30.04c-.07 22.56-20.51 39.85-42.26 36.28-26.71-4.38-39.95-33.72-25.39-56.58q.32-.5-.12-.91l-5.18-4.71a.76.75-52.3 0 0-1.15.15q-12.32 19.44-5.5 39.91c11.27 33.79 55.47 41.93 78 14.05 17.36-21.47 11.3-52-11.58-66.77q-.43-.28-.55.22l-1.79 7.34a.96.95-63.9 0 0 .33.98Zm-69.13 6.95a1.08 1.08 0 0 0 1.75-.13l3.03-4.98a1.08 1.08 0 0 0-.68-1.62l-8.9-1.99a1.08 1.08 0 0 0-1.06 1.74l5.86 6.98Zm36.77-6.78a1.01 1.01 0 0 0-.67 1.5l3.01 5.17a1.01 1.01 0 0 0 1.64.16l6.15-7.05a1.01 1.01 0 0 0-.97-1.65l-9.16 1.87Zm-57.26 2.23c3.75 8.09 9.66 14.48 17.03 19.38a.51.51 0 0 0 .78-.31l1.81-7.41q.14-.56-.33-.9-7.31-5.35-11.48-13.45-.35-.67-1.05-.42l-6.39 2.23q-.68.23-.37.88Zm16.59 25.32c-9.8-5.63-16.53-12.86-21.5-22.3a.4.4 0 0 0-.61-.12c-27.37 23.48-2.91 65.02 31.08 53.31a.34.34 0 0 0 .17-.51q-8.82-13.37-8.65-29.52.01-.57-.49-.86Zm40.72 31.11c33.11 11.81 56.88-30.53 30.03-53.7a.41.41 0 0 0-.64.12q-7.22 14.62-21.45 22.55-.47.27-.54.8c-.21 1.76-.01 4.04-.12 5.32q-1.19 12.93-8.25 23.92a.53.52 48.8 0 0-.03.5c.22.46.62.35 1 .49Zm-12.46-7.96c.75.99 4.12 4.58 5.58 4.66q.51.03.79-.39 7.19-10.82 7.65-23.78.01-.5-.46-.36l-7.15 2.03a1.14 1.12 86.4 0 0-.8.92q-1.21 8.58-5.66 16-.28.48.05.92Zm-3.97-6.34c1.39-.29 3.52-8.56 3.75-10.03q.09-.57-.49-.57h-6.64q-.74 0-.5.7l3.29 9.56a.52.51 74.6 0 0 .59.34Z"/><path fill="#fff" d="M645.6 351.84c12.64-27.98-16.1-59.63-45.88-49.21-13.87 4.86-22.98 16.28-24.88 31.1q-.06.49-.54.63l-7.4 2.23q-.42.13-.41-.31c1.06-33.39 36.43-54.25 66.24-38.5 27.85 14.7 32.12 52.34 8.99 73.39q-13.44 12.23-33.34 11.64a.97.96 5 0 1-.93-1.1l1.02-6.64q.08-.54.63-.54 26.22.06 36.5-22.69Z"/><path fill="#ef7b00" d="M399.26 423.72c-28.16-9.72-56.4-8.99-84.67-3.71q-.87.16-.87-.72l.04-119.09a1.31 1.31 0 0 1 1.1-1.29c28.72-4.74 57.2-6.25 85 4.3q.48.18.95 0c27.88-10.76 56.75-9.04 84.67-4.28q1.66.28 1.63 1.97c-.64 39.2.37 78-.48 116.97q-.01.44.22.82.38.61-.04 1.13-.31.39-.8.29c-18.53-3.68-38.43-5.16-57.22-2.91-10.28 1.23-19.13 3.9-28.54 6.55q-.5.14-.99-.03Zm-78.67-27.69c26.97-3.83 50.11-3.93 75.95 3.62q.73.21.73-.54v-89.56q0-.52-.49-.7c-25.09-9.15-50.31-8.18-76.42-4.19a.42.42 0 0 0-.36.42v90.44q0 .59.59.51Zm134.35-2.47q9.74.5 25.27 2.43.57.07.56-.5l-.09-90.25q0-.6-.6-.69c-25.66-3.7-51.28-5.06-76.49 4.51a.54.53 79.7 0 0-.34.5v89.7a.44.43 81.6 0 0 .56.42q25.07-7.44 51.13-6.12Z"/><path fill="#fff" d="M396.54 399.65c-25.84-7.55-48.98-7.45-75.95-3.62q-.59.08-.59-.51v-90.44a.42.42 0 0 1 .36-.42c26.11-3.99 51.33-4.96 76.42 4.19q.49.18.49.7v89.56q0 .75-.73.54ZM337 316.95c-4.69 1.38-2.68 8 1.76 7.29 15-2.41 26.81-3.75 40.58 1.33 3.58 1.31 7.37.71 6.9-3.99a2.42 2.4 8.8 0 0-1.46-1.98q-14.68-6.19-30.54-4.99-12.55.95-17.24 2.34Zm2 17.82c-7.56 1.38-5.44 8.49 1.57 7.32 13.46-2.26 26.4-3.23 40.08 2.15 4.59 1.81 9-4.84 2.09-7.36-14.62-5.33-28.11-4.97-43.74-2.11Zm-.52 18.07c-6.49 1.13-4.86 8.63 1.2 7.56 13.65-2.41 26.27-3.3 39.54 1.51 2.28.82 4.86 1.04 6.39-.8 5.9-7.11-18.69-9.98-21.11-10.11q-11.94-.61-26.02 1.84Zm-1.41 18.75c-4.83 1.01-2.62 7.82 1.44 7.16 15.19-2.45 27.5-3.87 41.57 1.64 5.29 2.07 8.96-4.53 4.26-6.49-15.41-6.43-31.26-5.66-47.27-2.31ZM454.94 393.56q-26.06-1.32-51.13 6.12a.44.43 81.6 0 1-.56-.42v-89.7a.54.53 79.7 0 1 .34-.5c25.21-9.57 50.83-8.21 76.49-4.51q.6.09.6.69l.09 90.25q.01.57-.56.5-15.53-1.93-25.27-2.43Zm-39.44-73.3c-2.28 3.42 1.27 7.06 4.46 5.98 8.32-2.82 14.68-4.52 23.55-4.15q8.49.36 16.86 1.82c6.91 1.21 8.86-6.05 3.11-7.07-14.48-2.57-28.68-3.94-43.16 1.2-.97.34-4.15 1.21-4.82 2.22Zm1.16 23.6c2.43 1.47 9.02-1.25 11.88-2.02 11.09-2.97 20.56-1.27 33.2.42 5.54.74 7.31-6.25 1.27-7.28-16.82-2.9-31.31-4-47.04 3.05q-.43.2-.65.62-1.74 3.35 1.34 5.21Zm.98 11.49c-6.15 2.41-1.52 8.81 2.81 7.11 14.29-5.62 26.5-4.56 42.04-1.9 4.18.72 6.9-6.47 0-7.55-16.37-2.53-29.64-3.62-44.85 2.34Zm-.46 18.33c-5.2 2.1-1.59 8.64 3.56 6.77 13.84-5.05 25.91-4.48 40.26-1.88 6.4 1.16 8.27-6.46 1.55-7.43-16.66-2.39-29.94-3.68-45.37 2.54Z"/><path fill="#003d7c" d="M611.1 340.45c-7.77-4.7-19.69-8.57-28.9-7.37q-2.01.27-1.47-1.69c9.23-33.68 52.78-33.45 61.58.15q.44 1.66-1.27 1.58-15.62-.7-28.9 7.33a.99.99 0 0 1-1.04 0ZM338.76 324.24c-4.44.71-6.45-5.91-1.76-7.29q4.69-1.39 17.24-2.34 15.86-1.2 30.54 4.99a2.42 2.4 8.8 0 1 1.46 1.98c.47 4.7-3.32 5.3-6.9 3.99-13.77-5.08-25.58-3.74-40.58-1.33ZM419.96 326.24c-3.19 1.08-6.74-2.56-4.46-5.98.67-1.01 3.85-1.88 4.82-2.22 14.48-5.14 28.68-3.77 43.16-1.2 5.75 1.02 3.8 8.28-3.11 7.07q-8.37-1.46-16.86-1.82c-8.87-.37-15.23 1.33-23.55 4.15ZM340.57 342.09c-7.01 1.17-9.13-5.94-1.57-7.32 15.63-2.86 29.12-3.22 43.74 2.11 6.91 2.52 2.5 9.17-2.09 7.36-13.68-5.38-26.62-4.41-40.08-2.15ZM416.66 343.86q-3.08-1.86-1.34-5.21.22-.42.65-.62c15.73-7.05 30.22-5.95 47.04-3.05 6.04 1.03 4.27 8.02-1.27 7.28-12.64-1.69-22.11-3.39-33.2-.42-2.86.77-9.45 3.49-11.88 2.02Z"/><path fill="#fff" d="M554.94 418.31c-14.71-12.46-19.3-32.66-12.58-50.46 8.82-23.36 35.96-34.97 59.42-25.3q15.45 6.37 23.58 22.27a.8.8 0 0 1-.44 1.12l-6.48 2.38q-.55.21-.82-.31c-16.88-32.5-66.2-24.68-69.86 12.73-1.35 13.92 5.08 26.71 16.71 34.37q15.66 10.31 35.43 2.77.5-.19.88.19l5.33 5.38q.37.38-.11.61-28.31 13.53-51.06-5.75ZM617.15 345.2q-.53-.52.14-.86 11.7-6.08 24.97-5.1.61.05.51.65l-1.22 6.98q-.13.75-.88.69-9.01-.72-17.12 3.19a.85.84 54.5 0 1-.95-.16l-5.45-5.39Z"/><path fill="#fff" d="M660.23 354.32a.96.95-63.9 0 1-.33-.98l1.79-7.34q.12-.5.55-.22c22.88 14.77 28.94 45.3 11.58 66.77-22.53 27.88-66.73 19.74-78-14.05q-6.82-20.47 5.5-39.91a.76.75-52.3 0 1 1.15-.15l5.18 4.71q.44.41.12.91c-14.56 22.86-1.32 52.2 25.39 56.58 21.75 3.57 42.19-13.72 42.26-36.28q.05-17.91-15.19-30.04Z"/><path fill="#003d7c" d="M339.68 360.4c-6.06 1.07-7.69-6.43-1.2-7.56q14.08-2.45 26.02-1.84c2.42.13 27.01 3 21.11 10.11-1.53 1.84-4.11 1.62-6.39.8-13.27-4.81-25.89-3.92-39.54-1.51ZM420.45 362.46c-4.33 1.7-8.96-4.7-2.81-7.11 15.21-5.96 28.48-4.87 44.85-2.34 6.9 1.08 4.18 8.27 0 7.55-15.54-2.66-27.75-3.72-42.04 1.9ZM591.1 361.27l-5.86-6.98a1.08 1.08 0 0 1 1.06-1.74l8.9 1.99a1.08 1.08 0 0 1 .68 1.62l-3.03 4.98a1.08 1.08 0 0 1-1.75.13ZM627.87 354.49l9.16-1.87a1.01 1.01 0 0 1 .97 1.65l-6.15 7.05a1.01 1.01 0 0 1-1.64-.16l-3.01-5.17a1.01 1.01 0 0 1 .67-1.5Z"/><path fill="#fff" d="M587.64 376.1c-7.37-4.9-13.28-11.29-17.03-19.38q-.31-.65.37-.88l6.39-2.23q.7-.25 1.05.42 4.17 8.1 11.48 13.45.47.34.33.9l-1.81 7.41a.51.51 0 0 1-.78.31Z"/><path fill="#003d7c" d="M565.7 359.74c4.97 9.44 11.7 16.67 21.5 22.3q.5.29.49.86-.17 16.15 8.65 29.52a.34.34 0 0 1-.17.51c-33.99 11.71-58.45-29.83-31.08-53.31a.4.4 0 0 1 .61.12ZM627.92 413.15c-.38-.14-.78-.03-1-.49a.53.52 48.8 0 1 .03-.5q7.06-10.99 8.25-23.92c.11-1.28-.09-3.56.12-5.32q.07-.53.54-.8 14.23-7.93 21.45-22.55a.41.41 0 0 1 .64-.12c26.85 23.17 3.08 65.51-30.03 53.7ZM338.51 378.75c-4.06.66-6.27-6.15-1.44-7.16 16.01-3.35 31.86-4.12 47.27 2.31 4.7 1.96 1.03 8.56-4.26 6.49-14.07-5.51-26.38-4.09-41.57-1.64ZM420.74 380.45c-5.15 1.87-8.76-4.67-3.56-6.77 15.43-6.22 28.71-4.93 45.37-2.54 6.72.97 4.85 8.59-1.55 7.43-14.35-2.6-26.42-3.17-40.26 1.88Z"/><path fill="#fff" d="M621.04 409.85c-1.46-.08-4.83-3.67-5.58-4.66q-.33-.44-.05-.92 4.45-7.42 5.66-16a1.14 1.12 86.4 0 1 .8-.92l7.15-2.03q.47-.14.46.36-.46 12.96-7.65 23.78-.28.42-.79.39Z"/><path fill="#003d7c" d="M615.24 388.82c-.23 1.47-2.36 9.74-3.75 10.03a.52.51 74.6 0 1-.59-.34l-3.29-9.56q-.24-.7.5-.7h6.64q.58 0 .49.57Z"/><path fill="#fff" d="m277.21 449.48 443.3.02q.66 81.04.23 104-.32 17.44-4.35 37.68c-9.85 49.39-30.89 97.33-58.73 138.74-37.12 55.18-94.81 96.2-157.02 118.6-.79.29-2.51.36-3.3.07-60.81-21.94-118.42-62.39-155.15-116.2-32.94-48.29-57.08-105.19-63.99-163.55-.6-5.04-.93-10.71-.93-15.92q-.01-51.75-.06-103.44Zm208.77 48.92q4.01-2.41 7.4-5.64.37-.35.83-.56l1.51-.67q.72-.32.21-.93c-7.01-8.25-18.78-10.16-28.97-8.7q-.91.13-.25-.51 2.63-2.52 3.8-5.97a.66.66 0 0 0-.76-.85c-13.41 2.69-35.12-8.52-42.06 10.83q-.35.99-.7 0c-5.61-15.52-22.36-11.66-34.49-10.3-2.8.31-5.27-.16-8.05-.56q-.53-.08-.38.43 1.02 3.7 3.78 6.39.75.73-.29.58c-9.86-1.48-22.21.44-28.77 8.65q-.25.3.06.54l9.42 7.2q.35.27-.08.35c-11.07 2.06-9.47 11.26-17.61 16.07q-.44.26-.31.76 1.91 7.56 9.46 9.19a.86.86 0 0 1 .55 1.3q-3.72 5.92-10.55 7.85a.31.31 0 0 0-.17.48q5.21 7.37 14.21 8.22.62.06.2.53-4.71 5.26-3.8 12.4.09.65-.45.28c-5.97-4.12-16.89-12.57-19.15-19.62q-4.4-13.72-8.42-27.56c-.83-2.82-2.01-5.93-3.49-7.99-2.34-3.27-5.14-2.92-8.48-3.18q-.55-.04-.85-.51-3.54-5.56-10.25-5.02-2.02.17-.39 1.37 2.83 2.1 4.17 5.36.2.48-.2.81l-3.32 2.7q-.44.36-1 .27-3.34-.49-6.56.44a.41.41 0 0 0-.1.74l3.41 2.03q.57.35.2.9-2.72 4.06-2.62 8.93.01.54-.53.55-2.63.07-4.89 1.36-.67.39.03.73l5.45 2.67a1.07 1.07 0 0 1 .47 1.46c-3.01 5.63.07 12.13 4.48 15.86 3.17 2.69 7.55 5.64 9.34 9.46 5.29 11.28 13.11 21.62 19.09 32.66q1.88 3.47 2.59 7.15 3.12 16.22 2.14 32.84-.03.55.52.5 4.63-.43 8.08-3.46.51-.46.7.2c2.6 8.95 1.32 16.88.16 25.88q-.07.56.43.32 9.63-4.58 15.54-13.43.29-.43.8-.35c8.69 1.34 18.18-2.19 25.8-5.08q.36-.14.56.18l5.19 8.41q.39.63.81.01 3.49-5.18 8.23-9.27a.73.72 69.6 0 1 1.2.55c.03 4.39.11 8.94 1.62 13.03 2.81 7.62 8.26 14.19 13.3 20.45q.32.4.22.9-4.7 23.46-11.93 46.26-1.16 3.66-4.58 10.51-.22.44-.72.47-11.22.57-22.46.56-5.5 0-10.54 4.78-.35.33-.84.4-7.21 1-9.34 7.87a.43.43 0 0 0 .55.54l5.76-1.92q.65-.22.84.43l.91 2.98q.14.48-.2.85-2.5 2.7-3.52 6.25a.3.29-3.2 0 0 .4.35l5.47-2.22q.67-.27 1.07.33l2.16 3.25q.26.38.09.81l-2.39 6.11a.33.33 0 0 0 .47.41l4.85-2.72q.51-.28.87.17c3.41 4.19 8 5.05 12.84 4.32q11-1.68 29.75-7.06 7.75-2.22 10.1-8.92 4.12-11.72 7.27-17.22c3.63-6.34 7.81-15.09 13.47-19.77q12.48-10.29 27.15-17.34a.82.81 58.5 0 0 .29-1.23q-2.57-3.31-6.35-4.99-.56-.25-.14-.7c7.14-7.53 13.32-8.15 22.56-11.35q.8-.28.27-.94l-5.48-6.82q-.24-.29.07-.5c8.5-6.01 16.9-9.85 27.35-6.92q.66.19.68-.51.12-5.49-4.06-8.88-.51-.42.11-.63l8.34-2.87q.6-.21.93.34 10.36 17.45 24.3 32.24.38.4.37.96-.06 2.22-.94 4.33-6.55 15.65-13.24 31.24-.2.47-.7.5-8.84.63-21.85.77-6.83.07-11.64 5.19-.33.35-.81.43-7.6 1.16-9.17 8.75-.14.71.5.38c1.86-.93 8.54-5.01 7.99.66q-.04.46-.34.81-2.39 2.84-3.08 6.56-.13.7.51.39l5.43-2.69q.66-.33 1.07.29l1.48 2.29q.33.5-.01 1-1.87 2.8-2.47 6.08-.14.74.52.38l4.98-2.77q.57-.32.98.19 4.31 5.43 10.81 4.32 10.42-1.78 25.44-6.16c6.67-1.94 10.18-3.96 12.77-10.16q2.88-6.88 7.27-14.16c3.73-6.17 13.23-11.33 19.52-14.6a.68.67-29.9 0 0 .26-.95q-1.71-2.75-4.58-4.05-.59-.28-.16-.77 6.67-7.72 16.8-9.06.82-.11.22-.67-5.11-4.77-11.84-6.45-.46-.12-.63-.57-1.33-3.54-3.17-6.85c-3.08-5.53 1.82-16.3 4.74-21.41q.29-.5.65-.06 14.61 17.56 30.4 34.08a1.25 1.25 0 0 1 .32 1.18q-5.09 21.36-15.11 40.85a1.26 1.26 0 0 1-1.09.69q-10.64.35-21.3.61-6.69.17-11.3 5.46-.35.4-.88.53-6.66 1.68-8.05 8.5-.15.73.51.39c1.78-.9 7.38-4.48 7.37.46q-.01.51-.33.9-2.49 2.93-3.26 6.69a.39.38-7.4 0 0 .55.42l5.36-2.66q.74-.37 1.21.31l2.04 2.94q.29.4.11.87l-1.97 5.28q-.43 1.15.64.54l4.09-2.33q.48-.28.83.15c6.34 7.76 23.47.93 31.88-1.34 8.27-2.24 13.12-3.15 16.42-10.4q4.46-9.79 13.29-30.69c3.04-7.2 13.69-12.28 20.27-15.98a.74.73-39.5 0 0 .12-1.2l-4.63-3.93a.35.34 42.2 0 1-.03-.5q6.89-7.06 16.57-9.08.79-.17.18-.68-6.11-5.14-13.96-6.57-.57-.11-.77-.65c-1.25-3.31-4.78-4.74-7.55-6.75q-8.86-6.45-10.21-17.44c-1.88-15.38-.45-31.43-1.5-47.03q-.23-3.53-3.04-15.75-.13-.6.48-.66c16.36-1.5 34.48-3.79 49.18-11.68 15.04-8.07 20.99-22.1 14.27-37.93-5.14-12.07-21.59-15.89-33.26-14.68-18.55 1.91-34.88 10.16-52.93 13.82-14.35 2.91-66.1 11.09-74.64-4.34q-3.19-5.77.64-12.61c3.16-5.64 13.65-6.39 19.29-6.37q16.08.08 32.18.26.5.01.87.34c14.44 12.92 41.1 10.9 58.34 6.17a.31.31 0 0 0 0-.6c-2.82-.78-7.55-3.09-7.83-6.49q-.05-.66.58-.45c9.01 2.98 14.6.92 23.06-2.43 6.82-2.69 12.28-3.07 19.24-2.31q.76.08.24-.47-11.24-12.14-27.92-8.21-.15.04-.19-.11-.04-.14-.12-.3-.18-.36.17-.53 4.36-2.2 5.61-6.9.19-.73-.52-.48c-8.22 2.84-16.07 3.56-24.48 1.09-17.52-5.15-30.17-2.48-44.82 8.21q-.4.29-.9.26-11.24-.86-29.76-1.29c-13.72-.31-31.53 1.47-38.01 15.45q-3.37 7.26-2.53 15.33c3.93 37.79 74.93 25.81 97.65 21.16 10.89-2.22 23.35-6.58 35.04-9.87 6.47-1.82 20.34-4.36 26.12-.16 4.01 2.92 5.71 10.72 2.04 14.62-10.13 10.78-39.03 12.43-52.96 13.16q-3.92.2-8.52-.6c-24.01-4.18-47.75.8-71.84.36q-27.28-.5-53.89-7.1-.48-.12-.59-.61-.93-4.37-3.87-7.73-.38-.43.19-.48 8.84-.83 14.09-7.93a.56.56 0 0 0-.3-.87q-6.78-1.89-10.29-7.89a.81.81 0 0 1 .53-1.2q7.44-1.64 9.51-9 .14-.49-.28-.77-1.21-.83-2.42-1.69c-3.49-2.5-4.07-7.12-6.91-10.14q-3.48-3.71-8.73-4.38-.48-.06-.06-.31Z"/><path fill="#003d7c" d="M486.04 498.71q5.25.67 8.73 4.38c2.84 3.02 3.42 7.64 6.91 10.14q1.21.86 2.42 1.69.42.28.28.77-2.07 7.36-9.51 9a.81.81 0 0 0-.53 1.2q3.51 6 10.29 7.89a.56.56 0 0 1 .3.87q-5.25 7.1-14.09 7.93-.57.05-.19.48 2.94 3.36 3.87 7.73.11.49.59.61 26.61 6.6 53.89 7.1c24.09.44 47.83-4.54 71.84-.36q4.6.8 8.52.6c13.93-.73 42.83-2.38 52.96-13.16 3.67-3.9 1.97-11.7-2.04-14.62-5.78-4.2-19.65-1.66-26.12.16-11.69 3.29-24.15 7.65-35.04 9.87-22.72 4.65-93.72 16.63-97.65-21.16q-.84-8.07 2.53-15.33c6.48-13.98 24.29-15.76 38.01-15.45q18.52.43 29.76 1.29.5.03.9-.26c14.65-10.69 27.3-13.36 44.82-8.21 8.41 2.47 16.26 1.75 24.48-1.09q.71-.25.52.48-1.25 4.7-5.61 6.9-.35.17-.17.53.08.16.12.3.04.15.19.11 16.68-3.93 27.92 8.21.52.55-.24.47c-6.96-.76-12.42-.38-19.24 2.31-8.46 3.35-14.05 5.41-23.06 2.43q-.63-.21-.58.45c.28 3.4 5.01 5.71 7.83 6.49a.31.31 0 0 1 0 .6c-17.24 4.73-43.9 6.75-58.34-6.17q-.37-.33-.87-.34-16.1-.18-32.18-.26c-5.64-.02-16.13.73-19.29 6.37q-3.83 6.84-.64 12.61c8.54 15.43 60.29 7.25 74.64 4.34 18.05-3.66 34.38-11.91 52.93-13.82 11.67-1.21 28.12 2.61 33.26 14.68 6.72 15.83.77 29.86-14.27 37.93-14.7 7.89-32.82 10.18-49.18 11.68q-.61.06-.48.66 2.81 12.22 3.04 15.75c1.05 15.6-.38 31.65 1.5 47.03q1.35 10.99 10.21 17.44c2.77 2.01 6.3 3.44 7.55 6.75q.2.54.77.65 7.85 1.43 13.96 6.57.61.51-.18.68-9.68 2.02-16.57 9.08a.35.34 42.2 0 0 .03.5l4.63 3.93a.74.73-39.5 0 1-.12 1.2c-6.58 3.7-17.23 8.78-20.27 15.98q-8.83 20.9-13.29 30.69c-3.3 7.25-8.15 8.16-16.42 10.4-8.41 2.27-25.54 9.1-31.88 1.34q-.35-.43-.83-.15l-4.09 2.33q-1.07.61-.64-.54l1.97-5.28q.18-.47-.11-.87l-2.04-2.94q-.47-.68-1.21-.31l-5.36 2.66a.39.38-7.4 0 1-.55-.42q.77-3.76 3.26-6.69.32-.39.33-.9c.01-4.94-5.59-1.36-7.37-.46q-.66.34-.51-.39 1.39-6.82 8.05-8.5.53-.13.88-.53 4.61-5.29 11.3-5.46 10.66-.26 21.3-.61a1.26 1.26 0 0 0 1.09-.69q10.02-19.49 15.11-40.85a1.25 1.25 0 0 0-.32-1.18q-15.79-16.52-30.4-34.08-.36-.44-.65.06c-2.92 5.11-7.82 15.88-4.74 21.41q1.84 3.31 3.17 6.85.17.45.63.57 6.73 1.68 11.84 6.45.6.56-.22.67-10.13 1.34-16.8 9.06-.43.49.16.77 2.87 1.3 4.58 4.05a.68.67-29.9 0 1-.26.95c-6.29 3.27-15.79 8.43-19.52 14.6q-4.39 7.28-7.27 14.16c-2.59 6.2-6.1 8.22-12.77 10.16q-15.02 4.38-25.44 6.16-6.5 1.11-10.81-4.32-.41-.51-.98-.19l-4.98 2.77q-.66.36-.52-.38.6-3.28 2.47-6.08.34-.5.01-1l-1.48-2.29q-.41-.62-1.07-.29l-5.43 2.69q-.64.31-.51-.39.69-3.72 3.08-6.56.3-.35.34-.81c.55-5.67-6.13-1.59-7.99-.66q-.64.33-.5-.38 1.57-7.59 9.17-8.75.48-.08.81-.43 4.81-5.12 11.64-5.19 13.01-.14 21.85-.77.5-.03.7-.5 6.69-15.59 13.24-31.24.88-2.11.94-4.33.01-.56-.37-.96-13.94-14.79-24.3-32.24-.33-.55-.93-.34l-8.34 2.87q-.62.21-.11.63 4.18 3.39 4.06 8.88-.02.7-.68.51c-10.45-2.93-18.85.91-27.35 6.92q-.31.21-.07.5l5.48 6.82q.53.66-.27.94c-9.24 3.2-15.42 3.82-22.56 11.35q-.42.45.14.7 3.78 1.68 6.35 4.99a.82.81 58.5 0 1-.29 1.23q-14.67 7.05-27.15 17.34c-5.66 4.68-9.84 13.43-13.47 19.77q-3.15 5.5-7.27 17.22-2.35 6.7-10.1 8.92-18.75 5.38-29.75 7.06c-4.84.73-9.43-.13-12.84-4.32q-.36-.45-.87-.17l-4.85 2.72a.33.33 0 0 1-.47-.41l2.39-6.11q.17-.43-.09-.81l-2.16-3.25q-.4-.6-1.07-.33l-5.47 2.22a.3.29-3.2 0 1-.4-.35q1.02-3.55 3.52-6.25.34-.37.2-.85l-.91-2.98q-.19-.65-.84-.43l-5.76 1.92a.43.43 0 0 1-.55-.54q2.13-6.87 9.34-7.87.49-.07.84-.4 5.04-4.78 10.54-4.78 11.24.01 22.46-.56.5-.03.72-.47 3.42-6.85 4.58-10.51 7.23-22.8 11.93-46.26.1-.5-.22-.9c-5.04-6.26-10.49-12.83-13.3-20.45-1.51-4.09-1.59-8.64-1.62-13.03a.73.72 69.6 0 0-1.2-.55q-4.74 4.09-8.23 9.27-.42.62-.81-.01l-5.19-8.41q-.2-.32-.56-.18c-7.62 2.89-17.11 6.42-25.8 5.08q-.51-.08-.8.35-5.91 8.85-15.54 13.43-.5.24-.43-.32c1.16-9 2.44-16.93-.16-25.88q-.19-.66-.7-.2-3.45 3.03-8.08 3.46-.55.05-.52-.5.98-16.62-2.14-32.84-.71-3.68-2.59-7.15c-5.98-11.04-13.8-21.38-19.09-32.66-1.79-3.82-6.17-6.77-9.34-9.46-4.41-3.73-7.49-10.23-4.48-15.86a1.07 1.07 0 0 0-.47-1.46l-5.45-2.67q-.7-.34-.03-.73 2.26-1.29 4.89-1.36.54-.01.53-.55-.1-4.87 2.62-8.93.37-.55-.2-.9l-3.41-2.03a.41.41 0 0 1 .1-.74q3.22-.93 6.56-.44.56.09 1-.27l3.32-2.7q.4-.33.2-.81-1.34-3.26-4.17-5.36-1.63-1.2.39-1.37 6.71-.54 10.25 5.02.3.47.85.51c3.34.26 6.14-.09 8.48 3.18 1.48 2.06 2.66 5.17 3.49 7.99q4.02 13.84 8.42 27.56c2.26 7.05 13.18 15.5 19.15 19.62q.54.37.45-.28-.91-7.14 3.8-12.4.42-.47-.2-.53-9-.85-14.21-8.22a.31.31 0 0 1 .17-.48q6.83-1.93 10.55-7.85a.86.86 0 0 0-.55-1.3q-7.55-1.63-9.46-9.19-.13-.5.31-.76c8.14-4.81 6.54-14.01 17.61-16.07q.43-.08.08-.35l-9.42-7.2q-.31-.24-.06-.54c6.56-8.21 18.91-10.13 28.77-8.65q1.04.15.29-.58-2.76-2.69-3.78-6.39-.15-.51.38-.43c2.78.4 5.25.87 8.05.56 12.13-1.36 28.88-5.22 34.49 10.3q.35.99.7 0c6.94-19.35 28.65-8.14 42.06-10.83a.66.66 0 0 1 .76.85q-1.17 3.45-3.8 5.97-.66.64.25.51c10.19-1.46 21.96.45 28.97 8.7q.51.61-.21.93l-1.51.67q-.46.21-.83.56-3.39 3.23-7.4 5.64-.42.25.06.31Zm-97.35 238.9q1.4 3.79-.72 7.13-.52.81.45.81c10.45-.04 22.25-3.89 32.62-6.46 4.27-1.06 7.18-3.4 8.7-7.79q4.22-12.14 8.81-19.49 18.3-29.27 35.63-59.12c2.33-4.01-.3-10.64-1.15-14.98q-.11-.57.45-.73l88.48-25.8a.77.77 0 0 0 .45-1.13l-4.41-7.51q-.3-.5.07-.94l1.59-1.94q.45-.54 1.04-.16c8.27 5.25 12.72 10.64 18.55 19.71 12.78 19.91 28.29 36.35 44.13 53.81q.33.37.22.86-5.5 24.21-17.15 46.13a1.51 1.49 12.5 0 1-1.26.79q-12.18.52-24.38.7-1.44.02-4.97 1.79-.48.25-.36.77.92 3.85-2.35 6.11a.51.51 0 0 0 .4.91l4.49-1.04q.51-.11.75.35c1.52 2.87.72 4.65-.59 7.35a.8.79 5.9 0 0 .91 1.11l6.24-1.53q.67-.16.98.46 1.9 3.8-.7 6.83a.42.42 0 0 0 .37.69c9.9-1.36 19.31-4.12 28.95-6.65 5.15-1.35 7.35-5.37 9.41-10.26 8.48-20.13 16.95-40.13 28.6-58.7q1.04-1.68.34-4.17-.14-.47-.57-.68c-14.49-6.92-17.96-20.27-17.94-35.1.03-19.23.74-37.34-5.25-55.93a.49.49 0 0 1 .43-.64c20-1.24 74.27-5.94 67.05-38.92q-2.46-11.21-13.23-15.09c-21.79-7.86-46.68 6.72-66.57 11.03-15.24 3.3-86.28 15.99-84.52-14.18.92-15.72 16.6-17.65 28.82-17.28q14.25.42 28.5.55 3.14.02 4.65-1.73.45-.51.02-1.04-1.42-1.76-4.43-1.98c-15.1-1.1-31.89-2.72-46.55.37-22.68 4.78-24.73 35.13-2.65 42.79q6.9 2.39 10.72 2.84c32.64 3.79 63.48-1.36 95.04-11.98 11.95-4.01 40.25-10.59 41.86 10.31 1.64 21.36-46.02 23.5-59.1 24.18q-3.89.2-8.56-.57c-20.96-3.48-44.75-.34-61.5.27q-27.32 1-57.92-5.4-3.42-.72-6.74-1.77a.49.48 15.5 0 0-.62.35q-2.22 9.84-7 18.64c-4.81 8.85-9.76 16.37-8.42 26.51q.07.59-.51.53-7.68-.76-13.08-6.09a.45.45 0 0 0-.77.33q.16 6.28.26 12.57c.14 9.19-3.16 17.07-8.59 24.24q-.32.42-.66.02c-3.01-3.56-8.48-7.93-9.01-12.53a.26.26 0 0 0-.52.01c-.57 7.67.21 14.83-3.8 21.75q-5.69 9.83-13.41 18.06a3.15 3.13 72.5 0 0-.76 1.47c-4.08 19.53-8.46 40.53-17.58 58.31a1.31 1.29 11.9 0 1-1.09.7q-11.69.58-23.34.69-3.64.04-6.81 1.77-.5.28-.41.85.57 3.61-2.48 5.5-.42.26-.21.71l.11.24q.13.27.42.23l5.03-.79q.51-.08.66.41 1.29 4.11-1.42 7.25a.81.81 0 0 0 .8 1.32l6.21-1.46q.62-.15.85.45Zm75.38-204.8q1.3-1.31 2.4-2.79.33-.45.07-.94l-5.03-9.53a.91.9 53.7 0 1 .16-1.06c3.3-3.32 7.02-6.53 5.34-11.71-2.4-7.34-8.71-6.65-14.73-5.06q-.46.13-.9-.06l-17.17-7.42a1.76 1.75-57.8 0 0-2.01.46l-6.1 7.01a.45.45 0 0 1-.68-.01l-6.29-7.41a.76.75 57.9 0 0-.86-.2l-18.21 7.71q-.51.22-1.03.04c-14.2-4.74-20.37 9.56-8.66 16.53a.71.7 30.6 0 1 .25.96l-5.58 9.65q-.25.45.08.84l16.8 20.29q.33.39.33.9v12.31q0 .54.42.88c2.39 1.93 6.77 3.47 7.38 6.79.42 2.34 1.08 8.46 3.7 9.32q11.55 3.75 22.86.42c1.29-.38 3.14-.79 3.42-2.23q.93-4.74 2.29-9.47.14-.49.58-.76l6.14-3.85q.46-.3.46-.84v-12.63q0-.48.3-.85 6.9-8.48 14.13-16.67.07-.07.07-.17 0-.13-.01-.27 0-.1.08-.18Zm-156.1-22.21q-1.23 2.71-.9 5.67.05.48.43.77l5.63 4.41q.45.35.22.86-1.94 4.46-6.55 4.12-.5-.04-.44.46c.68 6.12 5.85 9.92 11.23 14.04 3.45 2.65 6.68 11.35 9.24 15.44 13.92 22.17 26.16 45.38 40.56 67.22q.72 1.09 1.76 1.82c3.32 2.32 18.09-3.22 22-4.71a.7.7 0 0 0 .42-.88c-2.73-8.07-1.23-15.67-1.47-24.14q-.02-.56-.42-.18-5.6 5.36-13.42 6.16-.53.05-.47-.48c1.64-15.06-9.18-23.85-13.01-37.1q-.14-.48-.55-.79c-7.48-5.63-14.87-11.34-21.29-18.2-3.21-3.44-4.33-6.93-5.68-11.34q-5.81-19.04-7.49-24.75-.95-3.24-2.85-6.41a1.76 1.75-33 0 0-2.52-.53l-2.38 1.67q-.47.33-1.04.31-1.78-.07-3.56-.23-.48-.04-.96.03-1.38.2-1.55 1.19-.07.41.22.7c1.92 1.94 5.7 4.84 1.15 7.05q-4.49 2.2-6.04-2.17a.15.15 0 0 0-.27-.01Zm209 213.13q2.17 3.8-.37 7.17a.41.41 0 0 0 .35.66c6.2-.35 33.49-5.49 36.35-10.75q5.31-9.8 20.83-40.4 2.04-4.03 5.59-7.55c3.72-3.68.47-6.69-1.26-10.24-3.61-7.45 2.2-20.03 6.03-26.3a2.53 2.53 0 0 0-.61-3.33q-5.86-4.53-10.72-9.98c-2.98-3.35-22.39.46-26.91 1.62a.47.46-33.5 0 0-.17.82q3.25 2.46 3.82 6.57.07.51-.44.48c-6.38-.4-11.96-1.33-18.47-.69a.56.56 0 0 0-.42.85q9.67 15.85 22.46 29.55c3.87 4.16 1.2 9.59-.66 13.95q-6.42 15.02-12.92 30.07a.97.96-80.6 0 1-.8.58q-11.74.86-23.43 1c-2.81.03-4.94.53-7.28 1.7q-.89.44-.71 1.42.6 3.3-1.97 5.44a.5.49 18 0 0 .44.86l4.45-1.11q.76-.19 1.03.55 1.5 4.07-1.44 7.31a.47.47 0 0 0 .46.78l5.86-1.42q.6-.14.91.39Z"/><path fill="#ef7b00" d="m387.84 737.16-6.21 1.46a.81.81 0 0 1-.8-1.32q2.71-3.14 1.42-7.25-.15-.49-.66-.41l-5.03.79q-.29.04-.42-.23l-.11-.24q-.21-.45.21-.71 3.05-1.89 2.48-5.5-.09-.57.41-.85 3.17-1.73 6.81-1.77 11.65-.11 23.34-.69a1.31 1.29 11.9 0 0 1.09-.7c9.12-17.78 13.5-38.78 17.58-58.31a3.15 3.13 72.5 0 1 .76-1.47q7.72-8.23 13.41-18.06c4.01-6.92 3.23-14.08 3.8-21.75a.26.26 0 0 1 .52-.01c.53 4.6 6 8.97 9.01 12.53q.34.4.66-.02c5.43-7.17 8.73-15.05 8.59-24.24q-.1-6.29-.26-12.57a.45.45 0 0 1 .77-.33q5.4 5.33 13.08 6.09.58.06.51-.53c-1.34-10.14 3.61-17.66 8.42-26.51q4.78-8.8 7-18.64a.49.48 15.5 0 1 .62-.35q3.32 1.05 6.74 1.77 30.6 6.4 57.92 5.4c16.75-.61 40.54-3.75 61.5-.27q4.67.77 8.56.57c13.08-.68 60.74-2.82 59.1-24.18-1.61-20.9-29.91-14.32-41.86-10.31-31.56 10.62-62.4 15.77-95.04 11.98q-3.82-.45-10.72-2.84c-22.08-7.66-20.03-38.01 2.65-42.79 14.66-3.09 31.45-1.47 46.55-.37q3.01.22 4.43 1.98.43.53-.02 1.04-1.51 1.75-4.65 1.73-14.25-.13-28.5-.55c-12.22-.37-27.9 1.56-28.82 17.28-1.76 30.17 69.28 17.48 84.52 14.18 19.89-4.31 44.78-18.89 66.57-11.03q10.77 3.88 13.23 15.09c7.22 32.98-47.05 37.68-67.05 38.92a.49.49 0 0 0-.43.64c5.99 18.59 5.28 36.7 5.25 55.93-.02 14.83 3.45 28.18 17.94 35.1q.43.21.57.68.7 2.49-.34 4.17c-11.65 18.57-20.12 38.57-28.6 58.7-2.06 4.89-4.26 8.91-9.41 10.26-9.64 2.53-19.05 5.29-28.95 6.65a.42.42 0 0 1-.37-.69q2.6-3.03.7-6.83-.31-.62-.98-.46l-6.24 1.53a.8.79 5.9 0 1-.91-1.11c1.31-2.7 2.11-4.48.59-7.35q-.24-.46-.75-.35l-4.49 1.04a.51.51 0 0 1-.4-.91q3.27-2.26 2.35-6.11-.12-.52.36-.77 3.53-1.77 4.97-1.79 12.2-.18 24.38-.7a1.51 1.49 12.5 0 0 1.26-.79q11.65-21.92 17.15-46.13.11-.49-.22-.86c-15.84-17.46-31.35-33.9-44.13-53.81-5.83-9.07-10.28-14.46-18.55-19.71q-.59-.38-1.04.16l-1.59 1.94q-.37.44-.07.94l4.41 7.51a.77.77 0 0 1-.45 1.13l-88.48 25.8q-.56.16-.45.73c.85 4.34 3.48 10.97 1.15 14.98q-17.33 29.85-35.63 59.12-4.59 7.35-8.81 19.49c-1.52 4.39-4.43 6.73-8.7 7.79-10.37 2.57-22.17 6.42-32.62 6.46q-.97 0-.45-.81 2.12-3.34.72-7.13-.23-.6-.85-.45ZM463.99 532.99q.01.14.01.27 0 .1-.07.17-7.23 8.19-14.13 16.67-.3.37-.3.85v12.63q0 .54-.46.84l-6.14 3.85q-.44.27-.58.76-1.36 4.73-2.29 9.47c-.28 1.44-2.13 1.85-3.42 2.23q-11.31 3.33-22.86-.42c-2.62-.86-3.28-6.98-3.7-9.32-.61-3.32-4.99-4.86-7.38-6.79q-.42-.34-.42-.88v-12.31q0-.51-.33-.9l-16.8-20.29q-.33-.39-.08-.84l5.58-9.65a.71.7 30.6 0 0-.25-.96c-11.71-6.97-5.54-21.27 8.66-16.53q.52.18 1.03-.04l18.21-7.71a.76.75 57.9 0 1 .86.2l6.29 7.41a.45.45 0 0 0 .68.01l6.1-7.01a1.76 1.75-57.8 0 1 2.01-.46l17.17 7.42q.44.19.9.06c6.02-1.59 12.33-2.28 14.73 5.06 1.68 5.18-2.04 8.39-5.34 11.71a.91.9 53.7 0 0-.16 1.06l5.03 9.53q.26.49-.07.94-1.1 1.48-2.4 2.79-.08.08-.08.18Zm-61.67-13.04a.34.34 0 0 0-.17.63l14.01 7.94a.34.34 0 0 0 .51-.27l.55-8.06a.34.34 0 0 0-.34-.37l-14.56.13Zm10.3 28.52c.21.92 8.99 6.71 10.42 7.69a1.62 1.61-73 0 1 .71 1.34v6.21q0 .5-.38.82-5.21 4.33-11.99 3.25-.63-.1-.62.53c.07 5.86 12.43 1.05 14.83-.49q.45-.28.88.02c2.6 1.81 14.93 6.27 14.26.29q-.05-.46-.52-.39-6.61 1.11-11.88-3.1-.48-.38-.47-.98l.03-6.24q0-.55.48-.81l10.83-5.84q.53-.29.47-.89-1.05-9.45-2.33-18.86-.26-1.87 1.64-3.04 6.29-3.86 12.6-7.48a.3.3 0 0 0-.15-.56l-17.64.23q-.54 0-.54.54v26.27a.99.99 0 0 1-.99.99l-19.31.09a.34.34 0 0 0-.33.41ZM307.97 510.6a.15.15 0 0 1 .27.01q1.55 4.37 6.04 2.17c4.55-2.21.77-5.11-1.15-7.05q-.29-.29-.22-.7.17-.99 1.55-1.19.48-.07.96-.03 1.78.16 3.56.23.57.02 1.04-.31l2.38-1.67a1.76 1.75-33 0 1 2.52.53q1.9 3.17 2.85 6.41 1.68 5.71 7.49 24.75c1.35 4.41 2.47 7.9 5.68 11.34 6.42 6.86 13.81 12.57 21.29 18.2q.41.31.55.79c3.83 13.25 14.65 22.04 13.01 37.1q-.06.53.47.48 7.82-.8 13.42-6.16.4-.38.42.18c.24 8.47-1.26 16.07 1.47 24.14a.7.7 0 0 1-.42.88c-3.91 1.49-18.68 7.03-22 4.71q-1.04-.73-1.76-1.82c-14.4-21.84-26.64-45.05-40.56-67.22-2.56-4.09-5.79-12.79-9.24-15.44-5.38-4.12-10.55-7.92-11.23-14.04q-.06-.5.44-.46 4.61.34 6.55-4.12.23-.51-.22-.86l-5.63-4.41q-.38-.29-.43-.77-.33-2.96.9-5.67Z"/><path fill="#003d7c" d="m402.32 519.95 14.56-.13a.34.34 0 0 1 .34.37l-.55 8.06a.34.34 0 0 1-.51.27l-14.01-7.94a.34.34 0 0 1 .17-.63ZM423.04 556.16c-1.43-.98-10.21-6.77-10.42-7.69a.34.34 0 0 1 .33-.41l19.31-.09a.99.99 0 0 0 .99-.99v-26.27q0-.54.54-.54l17.64-.23a.3.3 0 0 1 .15.56q-6.31 3.62-12.6 7.48-1.9 1.17-1.64 3.04 1.28 9.41 2.33 18.86.06.6-.47.89l-10.83 5.84q-.48.26-.48.81l-.03 6.24q-.01.6.47.98 5.27 4.21 11.88 3.1.47-.07.52.39c.67 5.98-11.66 1.52-14.26-.29q-.43-.3-.88-.02c-2.4 1.54-14.76 6.35-14.83.49q-.01-.63.62-.53 6.78 1.08 11.99-3.25.38-.32.38-.82v-6.21a1.62 1.61-73 0 0-.71-1.34Z"/><rect width="8.38" height="66.88" x="-4.19" y="-33.44" fill="#fff" rx=".28" transform="rotate(.2 -182045.253 325569.341)"/><rect width="9.74" height="9.66" x="-4.87" y="-4.83" fill="#fff" rx=".42" transform="rotate(-.2 175419.956 -272459.54)"/><rect width="9.5" height="9.62" x="-4.75" y="-4.81" fill="#fff" rx=".41" transform="rotate(.2 -174276.077 373085.592)"/><rect width="9.48" height="9.56" x="1484.76" y="605.91" fill="#fff" rx=".36"/><path fill="#fff" d="m838.73 657.41.01-48.56a.35.35 0 0 1 .35-.35h8.31a.35.35 0 0 1 .35.35v61.65a.35.35 0 0 1-.35.35l-11.08-.15a.35.35 0 0 1-.3-.18l-27.39-49.59a.35.35 0 0 0-.66.17l.04 49.4a.35.35 0 0 1-.35.35l-8.31-.04a.35.35 0 0 1-.35-.35v-61.47a.35.35 0 0 1 .35-.35l11.76.16a.35.35 0 0 1 .3.18l26.66 48.59a.35.35 0 0 0 .66-.16ZM1226.54 644.49c.02 14.51-6.01 26.4-21.92 27.38q-20.3 1.26-25.14-16.33-1.34-4.86-1.29-16.63.06-14.91-.27-29.73a.52.52 0 0 1 .51-.54l8.04-.17q.53-.01.53.51-.16 19.4.52 38.76c.35 9.85 4.96 16.51 15.49 16.24 10.62-.27 14.12-8.67 14.3-17.85q.37-18.43.12-36.86-.01-.52.51-.53l8.07-.25q.47-.02.47.46.05 17.8.06 35.54ZM925.06 625.44l10.83-.16q.61-.01.61.61v5.89q0 .53-.53.53l-10.91-.09q-.6 0-.63.6-.51 12.1.07 24.13c.38 7.78 5.54 9.74 12.22 6.95q.53-.22.53.35v5.81q0 .56-.52.74c-7.88 2.79-18.79 1.3-20.47-8.55-.36-2.12-.58-5.36-.53-8.01q.23-10.74-.02-21.49-.01-.5-.51-.5h-9.09q-.38 0-.39-.39l-.04-5.97q0-.44.43-.45l9.33-.26q.36-.01.36-.37l-.07-9.27q-.01-.57.54-.74l7.46-2.35q.45-.14.46.33l.21 12.03q.01.64.66.63ZM1521.75 625.25h11q.5 0 .5.5v5.75q0 .75-.75.75h-10.7q-.48 0-.48.48-.23 17.86-.04 24.49c.23 7.76 6.08 9.1 12.14 6.64q.58-.24.58.39v5.81q0 .57-.53.75c-9.05 3.18-20.17.65-20.45-10.89q-.34-13.58-.28-27.17a.5.49 90 0 0-.49-.5h-9.13q-.62 0-.62-.63v-5.75q0-.62.63-.62l9.09.01q.53 0 .53-.54v-9.4q0-.45.43-.58l7.52-2.36q.55-.17.55.4v11.97q0 .5.5.5Z"/><path fill="#ef7b00" d="m516.06 723.34-5.86 1.42a.47.47 0 0 1-.46-.78q2.94-3.24 1.44-7.31-.27-.74-1.03-.55l-4.45 1.11a.5.49 18 0 1-.44-.86q2.57-2.14 1.97-5.44-.18-.98.71-1.42c2.34-1.17 4.47-1.67 7.28-1.7q11.69-.14 23.43-1a.97.96-80.6 0 0 .8-.58q6.5-15.05 12.92-30.07c1.86-4.36 4.53-9.79.66-13.95q-12.79-13.7-22.46-29.55a.56.56 0 0 1 .42-.85c6.51-.64 12.09.29 18.47.69q.51.03.44-.48-.57-4.11-3.82-6.57a.47.46-33.5 0 1 .17-.82c4.52-1.16 23.93-4.97 26.91-1.62q4.86 5.45 10.72 9.98a2.53 2.53 0 0 1 .61 3.33c-3.83 6.27-9.64 18.85-6.03 26.3 1.73 3.55 4.98 6.56 1.26 10.24q-3.55 3.52-5.59 7.55-15.52 30.6-20.83 40.4c-2.86 5.26-30.15 10.4-36.35 10.75a.41.41 0 0 1-.35-.66q2.54-3.37.37-7.17-.31-.53-.91-.39Z"/><path fill="#fff" d="M1107.87 665.84q-10.55 10.59-23.93 3.94-6.28-3.13-6.43-11.29c-.28-15.21 18.71-16.59 29.31-15.46a.62.61 3 0 0 .68-.61c.13-14.78-15.88-12.56-23.8-6.87q-.58.41-.62-.3l-.35-6.02a1.02 1.02 0 0 1 .52-.94c11.71-6.48 32.62-6.39 32.65 12.17q.02 14.85.31 29.76.01.53-.52.55l-6.55.23q-.63.03-.63-.61l-.02-4.3q-.01-.86-.62-.25ZM1087 655.79c-4.01 12.27 23.41 14.04 20.2-6.06q-.06-.41-.47-.43c-5.86-.28-17.47-.45-19.73 6.49ZM1250.38 631.47q6.81-8.72 18.21-6.85c8.88 1.46 12.65 8.27 13.01 16.64q.6 14.46.09 28.94-.02.52-.54.54l-6.96.27q-.73.03-.72-.7.18-13.35-.24-26.54c-.27-8.56-5.07-15.01-14.22-11.63-6.38 2.36-8.61 9.02-8.76 15.43q-.27 11.33-.28 22.67 0 .59-.59.59l-7.4-.11q-.48-.01-.48-.49v-44.09q0-.62.61-.64l6.96-.32q.68-.03.68.65v5.42q0 1.03.63.22ZM1371.42 650.74c1.55 16.06 17.13 16.99 28.33 10.23q.5-.3.5.29v7.22q0 .59-.54.81c-15.09 6.16-34.36 2.85-36.94-16.32-4.82-35.83 43.07-39.79 40.73-3.44q-.03.44-.47.45l-30.98.07q-.69 0-.63.69Zm23.11-7.52c-.06-15.66-21.27-15.97-22.96.03q-.06.5.44.5H1394q.53 0 .53-.53ZM890.11 665.86c-11.1 11.2-35.16 7.11-29.6-12.9 2.69-9.65 19.98-11.04 27.89-9.84a.92.92 0 0 0 1.06-.89c.39-14.5-15.67-12.36-23.72-6.67q-.58.41-.62-.3l-.34-6.01q-.03-.56.46-.84c9.53-5.5 26.77-6.84 31.45 5.37q1.27 3.32 1.26 14.64 0 10.92.42 21.86.02.46-.45.48l-6.78.25q-.64.02-.64-.62v-4.37q0-.56-.39-.16Zm-20.3-11.8c-7.92 11.73 21.84 18.61 19.61-4.18q-.05-.5-.55-.54c-5.41-.44-15.72-.22-19.06 4.72ZM991.854 672.11a24.01 23.3 89.8 0 1-23.384-23.929 24.01 23.3 89.8 0 1 23.216-24.09 24.01 23.3 89.8 0 1 23.384 23.928 24.01 23.3 89.8 0 1-23.216 24.09Zm-.015-6.85a17 14.14 89.8 0 0 14.08-17.05 17 14.14 89.8 0 0-14.198-16.95 17 14.14 89.8 0 0-14.08 17.05 17 14.14 89.8 0 0 14.198 16.95Z"/><path fill="#fff" d="M1034.85 631.36c10.04-11.81 30.76-8.68 31.3 8.94q.26 8.35.04 29.99 0 .46-.47.46h-7.42q-.52 0-.52-.51-.1-13.03-.01-25.98.02-1.81-.5-4.39c-2.6-13.09-17.86-10.02-21.19.42-2.81 8.83-1.61 20.66-1.6 29.93q0 .57-.57.58l-7.32.12q-.59.01-.59-.58v-44.48q0-.64.64-.63l7.27.07q.59.01.59.6v5.33q0 .55.35.13ZM1423.22 631.67c5-5.66 8.22-8.94 16.7-6.66q.58.15.58.75V632q0 .74-.7.52c-20.13-6.29-16.69 27.97-16.45 37.6q.01.63-.62.63h-7.35q-.61 0-.61-.62l-.02-43.98q0-.6.6-.63l6.85-.34q.55-.03.55.52v5.79q0 .71.47.18ZM1460.04 652.75c-6.6-3.07-15.25-6.82-14.47-15.71 1.18-13.34 15.71-14.3 25.91-11.01q.51.16.46.69l-.54 6.06q-.05.6-.62.41c-4.41-1.45-12.85-4.15-15.7 1.63-1.89 3.83 1.35 6.39 4.63 8.1 6.86 3.57 14.99 5.96 14.32 15.76-.98 14.25-16.75 15.31-27.27 11.45a1.53 1.53 0 0 1-1-1.52l.37-6.11q.05-.78.71-.36c4.4 2.78 13.65 4.95 17.3-.09 2.7-3.74-.32-7.54-4.1-9.3Z"/><rect width="8.5" height="45.42" x="948" y="625.32" fill="#fff" rx=".33"/><rect width="8.5" height="45.58" x="1297" y="625.25" fill="#fff" rx=".59"/><path fill="#fff" d="m1336.65 661.61 12.14-36.09a.39.39 0 0 1 .37-.27h7.69a.39.39 0 0 1 .36.52l-16.09 44.97a.39.39 0 0 1-.37.26l-9.52-.04a.39.39 0 0 1-.36-.26l-16.16-44.98a.39.39 0 0 1 .38-.52l8.53.16a.39.39 0 0 1 .37.27l11.92 35.98a.39.39 0 0 0 .74 0Z"/><rect width="8.5" height="45.42" x="1485.25" y="625.33" fill="#fff" rx=".35"/><path fill="#fff" d="M1559.16 662.5q.14-.26.08-.53-.07-.34.04-.67l11.64-34.92q.39-1.18 1.63-1.16l6.69.12q.62.01.41.59-12.96 36.14-19 52.41c-3.37 9.08-10.55 14.65-20.54 11.67q-.41-.12-.36-.55l.59-5.87q.05-.54.56-.36c7.87 2.73 14.91-6.41 12.32-13.55q-7.93-21.83-15.85-43.64-.19-.52.36-.58c2.6-.29 5.12-.13 7.65-.25 1.65-.08 1.46 1.31 1.8 2.38q5.5 17.33 11.43 34.86a.3.3 0 0 0 .55.05Z"/><ellipse fill="#003d7c" rx="17" ry="14.14" transform="rotate(89.8 170.627 821.754)"/><path fill="#003d7c" d="M1371.57 643.25c1.69-16 22.9-15.69 22.96-.03q0 .53-.53.53h-21.99q-.5 0-.44-.5ZM889.42 649.88c2.23 22.79-27.53 15.91-19.61 4.18 3.34-4.94 13.65-5.16 19.06-4.72q.5.04.55.54ZM1107.2 649.73c3.21 20.1-24.21 18.33-20.2 6.06 2.26-6.94 13.87-6.77 19.73-6.49q.41.02.47.43Z"/><path fill="#fff" d="M857.65 737.75H848q-.5 0-.5-.5v-5.75q0-.75.75-.75h9.48q.54 0 .53-.54c-.39-16.07 2.66-23.06 20.28-21.5q.56.05.53.61l-.3 5.66q-.03.62-.64.52c-11.49-1.75-12.11 5.73-11.56 14.63q.04.62.67.62h11.01q.5 0 .5.5v6q0 .5-.5.5h-11a.76.75 0 0 0-.76.75l.03 37.15q0 .6-.6.6h-7.22q-.55 0-.55-.55l.14-37.3q.01-.65-.64-.65Z"/><rect width="9.54" height="9.68" x="-4.77" y="-4.84" fill="#fff" rx=".51" transform="rotate(-.7 59077.062 -78178.849)"/><path fill="#fff" d="M911.61 741.39c-5.74-5.33-6.44-14.81-1.98-21.03 6.65-9.26 20.56-8.19 30.03-5.41q.46.13.39.6l-1.13 7.42q-.09.54-.59.33-6.86-2.9-14.22-2.07c-8.09.91-10.65 9.96-3.82 14.49q2.39 1.58 11.22 6.03c9.61 4.83 14.06 13.8 10.38 24-4.67 12.94-23.17 13.38-33.92 8.99q-.46-.19-.41-.67l.78-7.09q.06-.63.65-.4c6.14 2.34 12.91 4.23 19.11.99 7.35-3.84 7.01-12.68.02-16.62-5.26-2.96-12.13-5.5-16.51-9.56ZM818.053 777.437a24.02 23.32 90.9 0 1-22.94-24.383 24.02 23.32 90.9 0 1 23.694-23.651 24.02 23.32 90.9 0 1 22.94 24.383 24.02 23.32 90.9 0 1-23.694 23.651Zm.387-6.867a16.99 14.16 90 0 0 14.16-16.99 16.99 14.16 90 0 0-14.16-16.99 16.99 14.16 90 0 0-14.16 16.99 16.99 14.16 90 0 0 14.16 16.99ZM987.62 736.89c11.27-13.43 31.72-8.12 31.61 11.11q-.08 13.83.1 27.67.01.58-.57.58h-7.5q-.5 0-.5-.51-.02-13.26-.01-26.49c.01-7.54-3.74-13.78-12.19-12.39-7.63 1.26-10.8 9.32-10.92 16.21q-.2 11.32-.13 22.66 0 .52-.52.52h-7.37q-.63 0-.63-.63l.08-44.28q0-.59.59-.59h6.99q.65 0 .64.65l-.13 5.31q-.02.75.46.18ZM1064.62 770.19c-1.01.58-1.79 1.73-2.62 2.3-11.24 7.65-26.48 3.56-30.27-10.23-4.53-16.47 4.72-36.44 24.53-32.07q4.91 1.08 9.23 6.15.25.3.26-.09l.01-4.85q0-.65.65-.65h6.83q.52 0 .52.52.04 22.37-.22 44.71c-.26 21.98-23.82 23.09-39.13 16.91q-.44-.18-.38-.64l.81-6.54a.58.58 0 0 1 .85-.44c13.6 7.34 31.5 5.44 29.47-14.8q-.06-.56-.54-.28Zm-12.296-.68a16.46 12.9 90.3 0 0 12.986-16.393 16.46 12.9 90.3 0 0-12.814-16.527 16.46 12.9 90.3 0 0-12.986 16.392 16.46 12.9 90.3 0 0 12.814 16.528ZM1115.3 771.3q-8.56 8.43-20.52 5.18c-12.09-3.27-13.25-18.92-2.6-24.98 7.06-4.01 14.28-3.15 22.07-3.3q.49-.01.52-.49c1.12-14.81-16.11-12.27-23.6-6.92q-.58.42-.63-.3l-.35-5.91q-.03-.56.45-.84c10.64-6.12 31.94-6.66 32.57 10.33q.55 15.2.26 31.72a.47.47 0 0 1-.47.46h-6.5q-.49 0-.49-.5l-.02-4.16q-.01-.96-.69-.29Zm-20.6-11.08c-5.15 10.83 15.57 14.84 19.67 2.11q.58-1.79.39-6.94-.01-.45-.46-.52c-5.46-.8-16.77-.61-19.6 5.35ZM1146.57 770.64a.27.27 0 0 0-.49.16l-.34 23.8q0 .41-.41.41L1138 795q-.5 0-.5-.5v-63.12q0-.63.63-.63h6.74q.63 0 .63.63v4.84q0 .92.62.25 8.86-9.46 21.13-5.95c19.5 5.58 17.96 44.32-3.56 46.68-6.72.74-13.03-.96-17.12-6.56Zm12.103-.144a17.04 12.97 91.2 0 0 13.324-16.764 17.04 12.97 91.2 0 0-12.61-17.308 17.04 12.97 91.2 0 0-13.324 16.764 17.04 12.97 91.2 0 0 12.61 17.308Z"/><path fill="#fff" d="M1212.14 777.44a24.01 23.32 90 0 1-23.32-24.01 24.01 23.32 90 0 1 23.32-24.01 24.01 23.32 90 0 1 23.32 24.01 24.01 23.32 90 0 1-23.32 24.01Zm.02-6.88a16.97 14.16 89.9 0 0 14.13-16.995 16.97 14.16 89.9 0 0-14.19-16.945 16.97 14.16 89.9 0 0-14.13 16.995 16.97 14.16 89.9 0 0 14.19 16.945Z"/><path fill="#fff" d="M1255.02 736.72q5.62-8.92 16.38-6.5.56.13.57.71l.09 6.38q.01.51-.48.39c-20.96-5.24-16.6 27.52-16.57 38.03q0 .52-.52.52H1247q-.5 0-.5-.5v-44.5q0-.5.5-.5h7.03q.53 0 .52.53l-.16 5.25q-.03 1.23.63.19ZM1287.3 755.97q.03 7.41 5.63 11.4c7.11 5.06 15.67 3.11 22.6-1.12q.47-.29.47.26v7.45q0 .47-.44.65-7.72 3.24-16.53 2.6c-31.5-2.29-25.96-53.17 4.75-47.2 12.64 2.46 15.87 13.8 15.69 25.02q-.01.47-.48.47h-31.22q-.47 0-.47.47Zm.49-6.97h21.96q.61 0 .6-.61c-.32-16-21.74-15.27-22.99.14a.43.43 0 0 0 .43.47Z"/><rect width="8.46" height="45.5" x="-4.23" y="-22.75" fill="#fff" rx=".43" transform="rotate(.1 -431243.824 550146.804)"/><ellipse fill="#003d7c" rx="16.99" ry="14.16" transform="rotate(90 32.43 786.01)"/><ellipse fill="#003d7c" rx="16.46" ry="12.9" transform="rotate(90.3 151.646 899.982)"/><ellipse fill="#003d7c" rx="17.04" ry="12.97" transform="rotate(91.2 210.594 944.233)"/><ellipse fill="#003d7c" rx="16.97" ry="14.16" transform="rotate(89.9 228.612 983.919)"/><path fill="#003d7c" d="M1287.79 749a.43.43 0 0 1-.43-.47c1.25-15.41 22.67-16.14 22.99-.14q.01.61-.6.61h-21.96ZM1114.37 762.33c-4.1 12.73-24.82 8.72-19.67-2.11 2.83-5.96 14.14-6.15 19.6-5.35q.45.07.46.52.19 5.15-.39 6.94Z"/></svg>